G04*
G04 #@! TF.GenerationSoftware,Altium Limited,Altium Designer,21.9.2 (33)*
G04*
G04 Layer_Color=10964583*
%FSTAX24Y24*%
%MOIN*%
G70*
G04*
G04 #@! TF.SameCoordinates,9AA07E9A-BA48-4811-965E-F14F798923DF*
G04*
G04*
G04 #@! TF.FilePolarity,Negative*
G04*
G01*
G75*
%ADD30R,0.0789X0.0552*%
%ADD31R,0.0552X0.0789*%
%ADD32R,0.0867X0.0474*%
%ADD33R,0.2049X0.2049*%
%ADD34R,0.0474X0.0867*%
%ADD35R,0.0730X0.0680*%
%ADD36R,0.1025X0.0474*%
%ADD37R,0.1025X0.1379*%
%ADD38R,0.0552X0.0592*%
%ADD39R,0.0592X0.0730*%
%ADD40R,0.0592X0.0474*%
%ADD41R,0.0592X0.0552*%
%ADD42O,0.0730X0.0830*%
%ADD43C,0.0710*%
%ADD44R,0.0710X0.0710*%
%ADD45C,0.1180*%
%ADD46C,0.1580*%
%ADD47O,0.0880X0.1080*%
%ADD48R,0.0880X0.1080*%
%ADD49R,0.1080X0.1680*%
%ADD50R,0.1680X0.1080*%
%ADD51R,0.0671X0.0671*%
%ADD52C,0.0671*%
%ADD53O,0.0789X0.0867*%
D30*
X041651Y067343D02*
D03*
X038585D02*
D03*
X058508Y063776D02*
D03*
X055442D02*
D03*
D31*
X036496Y062522D02*
D03*
Y059456D02*
D03*
X038425D02*
D03*
Y062522D02*
D03*
D32*
X045679Y070978D02*
D03*
Y070478D02*
D03*
Y071978D02*
D03*
Y071478D02*
D03*
Y069978D02*
D03*
Y068478D02*
D03*
Y068978D02*
D03*
Y069478D02*
D03*
Y065478D02*
D03*
Y065978D02*
D03*
Y066478D02*
D03*
Y066978D02*
D03*
Y067478D02*
D03*
Y067978D02*
D03*
X052766Y065478D02*
D03*
Y065978D02*
D03*
Y066478D02*
D03*
Y066978D02*
D03*
Y067478D02*
D03*
Y067978D02*
D03*
Y068478D02*
D03*
Y068978D02*
D03*
Y069478D02*
D03*
Y069978D02*
D03*
Y070478D02*
D03*
Y070978D02*
D03*
Y071478D02*
D03*
Y071978D02*
D03*
D33*
X048819Y068898D02*
D03*
D34*
X050972Y064887D02*
D03*
X050472D02*
D03*
X049972D02*
D03*
X049472D02*
D03*
X048972D02*
D03*
X048472D02*
D03*
X047972D02*
D03*
X047472D02*
D03*
X046972D02*
D03*
X051472D02*
D03*
D35*
X044134Y071594D02*
D03*
Y072894D02*
D03*
D36*
X036181Y067323D02*
D03*
Y068228D02*
D03*
Y069134D02*
D03*
D37*
X033898Y068228D02*
D03*
D38*
X049803Y062575D02*
D03*
X050803D02*
D03*
X034713Y071457D02*
D03*
X033713D02*
D03*
X033594Y070079D02*
D03*
X034594D02*
D03*
D39*
X05749Y065049D02*
D03*
X056309D02*
D03*
X033661Y072677D02*
D03*
X034843D02*
D03*
X042584Y062559D02*
D03*
X041403D02*
D03*
X040866Y068622D02*
D03*
X039685D02*
D03*
D40*
X034764Y074803D02*
D03*
Y073973D02*
D03*
X037559Y069094D02*
D03*
Y068264D02*
D03*
D41*
X03374Y07487D02*
D03*
Y07387D02*
D03*
X052126Y062768D02*
D03*
Y063768D02*
D03*
X05315Y063728D02*
D03*
Y062728D02*
D03*
D42*
X054112Y078661D02*
D03*
X055122D02*
D03*
X056102D02*
D03*
X057112D02*
D03*
D43*
X037446Y072989D02*
D03*
X045591Y059472D02*
D03*
Y060472D02*
D03*
Y061472D02*
D03*
X047535Y078228D02*
D03*
X046535D02*
D03*
X045535D02*
D03*
D44*
X037446Y074489D02*
D03*
D45*
X032165Y061181D02*
D03*
X034165D02*
D03*
X030139Y061155D02*
D03*
X043024Y059921D02*
D03*
X041024D02*
D03*
X059012Y067503D02*
D03*
Y069503D02*
D03*
X051882Y078701D02*
D03*
X049882D02*
D03*
X029921Y069283D02*
D03*
Y067283D02*
D03*
D46*
X037853Y07916D02*
D03*
D47*
X038853Y07686D02*
D03*
X037853D02*
D03*
D48*
X036853D02*
D03*
D49*
X033022Y077142D02*
D03*
X030522D02*
D03*
D50*
X032022Y075142D02*
D03*
D51*
X057377Y072828D02*
D03*
D52*
Y073828D02*
D03*
Y074828D02*
D03*
Y075828D02*
D03*
D53*
X048193Y05937D02*
D03*
X049193D02*
D03*
X052193D02*
D03*
Y06137D02*
D03*
X049193D02*
D03*
X048193D02*
D03*
M02*
