G04*
G04 #@! TF.GenerationSoftware,Altium Limited,Altium Designer,21.9.2 (33)*
G04*
G04 Layer_Color=8421504*
%FSTAX24Y24*%
%MOIN*%
G70*
G04*
G04 #@! TF.SameCoordinates,9AA07E9A-BA48-4811-965E-F14F798923DF*
G04*
G04*
G04 #@! TF.FilePolarity,Positive*
G04*
G01*
G75*
%ADD18R,0.0709X0.0472*%
%ADD19R,0.0472X0.0709*%
%ADD20R,0.0787X0.0394*%
%ADD21R,0.1969X0.1969*%
%ADD22R,0.0394X0.0787*%
%ADD23R,0.0650X0.0600*%
%ADD24R,0.0945X0.0394*%
%ADD25R,0.0945X0.1299*%
%ADD26R,0.0472X0.0512*%
%ADD27R,0.0512X0.0650*%
%ADD28R,0.0512X0.0394*%
%ADD29R,0.0512X0.0472*%
D18*
X041651Y067343D02*
D03*
X038585D02*
D03*
X058508Y063776D02*
D03*
X055442D02*
D03*
D19*
X036496Y062522D02*
D03*
Y059456D02*
D03*
X038425D02*
D03*
Y062522D02*
D03*
D20*
X045679Y070978D02*
D03*
Y070478D02*
D03*
Y071978D02*
D03*
Y071478D02*
D03*
Y069978D02*
D03*
Y068478D02*
D03*
Y068978D02*
D03*
Y069478D02*
D03*
Y065478D02*
D03*
Y065978D02*
D03*
Y066478D02*
D03*
Y066978D02*
D03*
Y067478D02*
D03*
Y067978D02*
D03*
X052766Y065478D02*
D03*
Y065978D02*
D03*
Y066478D02*
D03*
Y066978D02*
D03*
Y067478D02*
D03*
Y067978D02*
D03*
Y068478D02*
D03*
Y068978D02*
D03*
Y069478D02*
D03*
Y069978D02*
D03*
Y070478D02*
D03*
Y070978D02*
D03*
Y071478D02*
D03*
Y071978D02*
D03*
D21*
X048819Y068898D02*
D03*
D22*
X050972Y064887D02*
D03*
X050472D02*
D03*
X049972D02*
D03*
X049472D02*
D03*
X048972D02*
D03*
X048472D02*
D03*
X047972D02*
D03*
X047472D02*
D03*
X046972D02*
D03*
X051472D02*
D03*
D23*
X044134Y071594D02*
D03*
Y072894D02*
D03*
D24*
X036181Y067323D02*
D03*
Y068228D02*
D03*
Y069134D02*
D03*
D25*
X033898Y068228D02*
D03*
D26*
X049803Y062575D02*
D03*
X050803D02*
D03*
X034713Y071457D02*
D03*
X033713D02*
D03*
X033594Y070079D02*
D03*
X034594D02*
D03*
D27*
X05749Y065049D02*
D03*
X056309D02*
D03*
X033661Y072677D02*
D03*
X034843D02*
D03*
X042584Y062559D02*
D03*
X041403D02*
D03*
X040866Y068622D02*
D03*
X039685D02*
D03*
D28*
X034764Y074803D02*
D03*
Y073973D02*
D03*
X037559Y069094D02*
D03*
Y068264D02*
D03*
D29*
X03374Y07487D02*
D03*
Y07387D02*
D03*
X052126Y062768D02*
D03*
Y063768D02*
D03*
X05315Y063728D02*
D03*
Y062728D02*
D03*
M02*
