G04*
G04 #@! TF.GenerationSoftware,Altium Limited,Altium Designer,21.9.2 (33)*
G04*
G04 Layer_Color=255*
%FSTAX24Y24*%
%MOIN*%
G70*
G04*
G04 #@! TF.SameCoordinates,9AA07E9A-BA48-4811-965E-F14F798923DF*
G04*
G04*
G04 #@! TF.FilePolarity,Positive*
G04*
G01*
G75*
%ADD27R,0.0512X0.0650*%
%ADD28R,0.0512X0.0394*%
%ADD29R,0.0512X0.0472*%
%ADD58O,0.0650X0.0750*%
%ADD59C,0.0630*%
%ADD60R,0.0630X0.0630*%
%ADD61C,0.1100*%
%ADD62C,0.1500*%
%ADD63O,0.0800X0.1000*%
%ADD64R,0.0800X0.1000*%
%ADD65R,0.1000X0.1600*%
%ADD66R,0.1600X0.1000*%
%ADD67R,0.0591X0.0591*%
%ADD68C,0.0591*%
%ADD69O,0.0709X0.0787*%
%ADD71R,0.0394X0.0512*%
%ADD72R,0.0650X0.0512*%
D27*
X050941Y062575D02*
D03*
X049759D02*
D03*
X046496Y07689D02*
D03*
X047677D02*
D03*
D28*
X035039Y068451D02*
D03*
Y067621D02*
D03*
D29*
X050193Y05987D02*
D03*
Y06087D02*
D03*
D58*
X054112Y078661D02*
D03*
X055122D02*
D03*
X056102D02*
D03*
X057112D02*
D03*
D59*
X037446Y072989D02*
D03*
X045591Y059472D02*
D03*
Y060472D02*
D03*
Y061472D02*
D03*
X047535Y078228D02*
D03*
X046535D02*
D03*
X045535D02*
D03*
D60*
X037446Y074489D02*
D03*
D61*
X032165Y061181D02*
D03*
X034165D02*
D03*
X030139Y061155D02*
D03*
X043024Y059921D02*
D03*
X041024D02*
D03*
X059012Y067503D02*
D03*
Y069503D02*
D03*
X051882Y078701D02*
D03*
X049882D02*
D03*
X029921Y069283D02*
D03*
Y067283D02*
D03*
D62*
X037853Y07916D02*
D03*
D63*
X038853Y07686D02*
D03*
X037853D02*
D03*
D64*
X036853D02*
D03*
D65*
X033022Y077142D02*
D03*
X030522D02*
D03*
D66*
X032022Y075142D02*
D03*
D67*
X057377Y072828D02*
D03*
D68*
Y073828D02*
D03*
Y074828D02*
D03*
Y075828D02*
D03*
D69*
X048193Y05937D02*
D03*
X049193D02*
D03*
X052193D02*
D03*
Y06137D02*
D03*
X049193D02*
D03*
X048193D02*
D03*
D71*
X034633Y071457D02*
D03*
X033803D02*
D03*
X037886Y07786D02*
D03*
X038716D02*
D03*
X039732Y067343D02*
D03*
X040562D02*
D03*
X05744Y063815D02*
D03*
X05661D02*
D03*
X039747Y068272D02*
D03*
X040577D02*
D03*
X05744Y064799D02*
D03*
X05661D02*
D03*
D72*
X053189Y062677D02*
D03*
Y063858D02*
D03*
X052126Y062677D02*
D03*
Y063858D02*
D03*
M02*
