G04*
G04 #@! TF.GenerationSoftware,Altium Limited,Altium Designer,21.9.2 (33)*
G04*
G04 Layer_Color=65535*
%FSTAX24Y24*%
%MOIN*%
G70*
G04*
G04 #@! TF.SameCoordinates,9AA07E9A-BA48-4811-965E-F14F798923DF*
G04*
G04*
G04 #@! TF.FilePolarity,Positive*
G04*
G01*
G75*
%ADD10C,0.0100*%
%ADD11C,0.0070*%
%ADD12C,0.0098*%
%ADD13C,0.0079*%
%ADD14C,0.0040*%
%ADD15C,0.0080*%
%ADD16C,0.0039*%
%ADD17R,0.3990X0.0360*%
G36*
X031165Y060331D02*
X031415Y060581D01*
X031265D01*
Y060831D01*
X031065D01*
Y060581D01*
X030915D01*
X031165Y060331D01*
D02*
G37*
G36*
X033165Y060356D02*
X033415Y060606D01*
X033265D01*
Y060856D01*
X033065D01*
Y060606D01*
X032915D01*
X033165Y060356D01*
D02*
G37*
G36*
X030771Y068283D02*
X030521Y068533D01*
Y068383D01*
X030271D01*
Y068183D01*
X030521D01*
Y068033D01*
X030771Y068283D01*
D02*
G37*
G36*
X037696Y073489D02*
X038046Y073139D01*
Y072859D01*
X038045Y072843D01*
X038039Y07281D01*
X038026Y072779D01*
X038007Y072751D01*
X037996Y072739D01*
X037996D01*
X037931Y072674D01*
X037922Y072666D01*
X037903Y072653D01*
X037881Y072644D01*
X037858Y072639D01*
X037846Y072639D01*
D01*
X037796Y072589D01*
X037783Y072577D01*
X037756Y072559D01*
X037725Y072546D01*
X037692Y072539D01*
X037675Y072539D01*
D01*
X037167D01*
X03715Y072539D01*
X037117Y072546D01*
X037086Y072559D01*
X037058Y072577D01*
X037046Y072589D01*
D01*
X036931Y072703D01*
X036923Y072712D01*
X03691Y072732D01*
X036901Y072754D01*
X036896Y072777D01*
X036896Y072789D01*
X036885Y072801D01*
X036866Y072829D01*
X036853Y07286D01*
X036847Y072893D01*
X036846Y072909D01*
D01*
Y073047D01*
X036848Y073081D01*
X036861Y073146D01*
X036886Y073208D01*
X036923Y073264D01*
X036946Y073289D01*
X036946D01*
X037061Y073403D01*
X037069Y073411D01*
X037089Y073424D01*
X037111Y073433D01*
X037134Y073438D01*
X037146Y073439D01*
D01*
Y073489D01*
X035746D01*
X035946Y072939D01*
X036246Y072539D01*
X036646Y072239D01*
X037246Y072039D01*
X037646D01*
X038146Y072189D01*
X038596Y072489D01*
X038896Y072839D01*
X039096Y073289D01*
X039146Y073489D01*
X037696D01*
D02*
G37*
G36*
X042024Y060771D02*
X041774Y060521D01*
X041924D01*
Y060271D01*
X042124D01*
Y060521D01*
X042274D01*
X042024Y060771D01*
D02*
G37*
G36*
X058162Y068503D02*
X058412Y068253D01*
Y068403D01*
X058662D01*
Y068603D01*
X058412D01*
Y068753D01*
X058162Y068503D01*
D02*
G37*
G36*
X050882Y077851D02*
X051132Y078101D01*
X050982D01*
Y078351D01*
X050782D01*
Y078101D01*
X050632D01*
X050882Y077851D01*
D02*
G37*
G36*
X054112Y078101D02*
X053862Y077851D01*
X054362D01*
X054112Y078101D01*
D02*
G37*
G36*
X047178Y071742D02*
X047184D01*
X047198Y07174D01*
X047213Y071738D01*
X047229Y071734D01*
X047247Y07173D01*
X047263Y071724D01*
X047264D01*
X047266Y071723D01*
X047268Y071722D01*
X047271Y07172D01*
X047278Y071717D01*
X047288Y07171D01*
X047299Y071703D01*
X04731Y071693D01*
X04732Y071682D01*
X04733Y071669D01*
Y071669D01*
X047331Y071668D01*
X047332Y071666D01*
X047334Y071663D01*
X047337Y071656D01*
X047342Y071646D01*
X047347Y071635D01*
X047351Y07162D01*
X047354Y071606D01*
X047356Y071589D01*
X047291Y071584D01*
Y071585D01*
Y071586D01*
X04729Y071589D01*
X047289Y071592D01*
X047287Y0716D01*
X047284Y071612D01*
X04728Y071623D01*
X047273Y071635D01*
X047265Y071646D01*
X047255Y071657D01*
X047253Y071657D01*
X047249Y07166D01*
X047242Y071665D01*
X047232Y071669D01*
X04722Y071674D01*
X047205Y071678D01*
X047187Y071681D01*
X047166Y071682D01*
X047155D01*
X047151Y071681D01*
X047145Y07168D01*
X047132Y071679D01*
X047117Y071676D01*
X047102Y071672D01*
X047088Y071666D01*
X047082Y071663D01*
X047076Y071659D01*
X047075Y071658D01*
X047072Y071655D01*
X047067Y07165D01*
X047063Y071644D01*
X047058Y071636D01*
X047053Y071627D01*
X04705Y071617D01*
X047049Y071605D01*
Y071603D01*
Y0716D01*
X04705Y071595D01*
X047051Y071589D01*
X047053Y071582D01*
X047057Y071575D01*
X047061Y071567D01*
X047068Y07156D01*
X047069Y071559D01*
X047073Y071557D01*
X047076Y071555D01*
X047078Y071553D01*
X047083Y071551D01*
X047088Y071548D01*
X047095Y071546D01*
X047102Y071543D01*
X04711Y07154D01*
X04712Y071536D01*
X04713Y071533D01*
X047142Y071529D01*
X047155Y071526D01*
X04717Y071523D01*
X047171D01*
X047174Y071522D01*
X047178Y071521D01*
X047184Y07152D01*
X04719Y071518D01*
X047198Y071516D01*
X047206Y071514D01*
X047215Y071512D01*
X047235Y071507D01*
X047253Y071501D01*
X047262Y071498D01*
X04727Y071495D01*
X047278Y071493D01*
X047283Y07149D01*
X047284D01*
X047286Y071489D01*
X047288Y071488D01*
X047291Y071487D01*
X047299Y071482D01*
X047309Y071476D01*
X04732Y071468D01*
X047331Y071459D01*
X047341Y071449D01*
X04735Y071438D01*
X047351Y071436D01*
X047354Y071432D01*
X047357Y071426D01*
X047361Y071417D01*
X047365Y071407D01*
X047369Y071394D01*
X047371Y07138D01*
X047372Y071365D01*
Y071364D01*
Y071364D01*
Y071361D01*
Y071358D01*
X04737Y07135D01*
X047369Y07134D01*
X047366Y071328D01*
X047362Y071316D01*
X047356Y071302D01*
X047348Y071288D01*
Y071287D01*
X047347Y071287D01*
X047343Y071282D01*
X047338Y071276D01*
X047331Y071268D01*
X047321Y071259D01*
X047309Y07125D01*
X047296Y071241D01*
X04728Y071233D01*
X04728D01*
X047278Y071232D01*
X047276Y071231D01*
X047273Y07123D01*
X047269Y071228D01*
X047263Y071226D01*
X047252Y071223D01*
X047238Y071219D01*
X047221Y071216D01*
X047202Y071213D01*
X047182Y071213D01*
X04717D01*
X047164Y071213D01*
X047158D01*
X04715Y071214D01*
X047141Y071215D01*
X047123Y071218D01*
X047104Y071221D01*
X047084Y071226D01*
X047066Y071233D01*
X047065D01*
X047064Y071233D01*
X047061Y071235D01*
X047058Y071236D01*
X04705Y071241D01*
X047039Y071248D01*
X047027Y071256D01*
X047015Y071267D01*
X047003Y071279D01*
X046992Y071293D01*
Y071294D01*
X04699Y071296D01*
X04699Y071298D01*
X046987Y071301D01*
X046986Y071304D01*
X046984Y071309D01*
X046979Y07132D01*
X046973Y071334D01*
X046969Y07135D01*
X046966Y071367D01*
X046965Y071386D01*
X047028Y071392D01*
Y071391D01*
Y07139D01*
X047029Y071388D01*
Y071385D01*
X04703Y071378D01*
X047033Y071369D01*
X047036Y071359D01*
X047039Y071348D01*
X047044Y071338D01*
X047049Y071328D01*
X04705Y071327D01*
X047052Y071324D01*
X047056Y071319D01*
X047061Y071314D01*
X047069Y071307D01*
X047077Y071301D01*
X047088Y071294D01*
X0471Y071288D01*
X047101D01*
X047101Y071287D01*
X047104Y071287D01*
X047106Y071286D01*
X047113Y071284D01*
X047123Y071281D01*
X047135Y071278D01*
X047148Y071276D01*
X047163Y071274D01*
X047179Y071273D01*
X047186D01*
X047193Y071274D01*
X047202Y071275D01*
X047212Y071276D01*
X047224Y071278D01*
X047236Y071281D01*
X047247Y071284D01*
X047249Y071285D01*
X047252Y071287D01*
X047258Y07129D01*
X047264Y071293D01*
X047271Y071298D01*
X047278Y071303D01*
X047286Y071309D01*
X047292Y071316D01*
X047292Y071317D01*
X047294Y07132D01*
X047296Y071324D01*
X047299Y07133D01*
X047302Y071336D01*
X047304Y071343D01*
X047306Y071351D01*
X047306Y07136D01*
Y071361D01*
Y071364D01*
X047306Y071369D01*
X047305Y071375D01*
X047303Y071381D01*
X0473Y071388D01*
X047297Y071396D01*
X047292Y071402D01*
X047291Y071403D01*
X047289Y071405D01*
X047286Y071408D01*
X04728Y071413D01*
X047275Y071417D01*
X047266Y071422D01*
X047257Y071427D01*
X047246Y071432D01*
X047245Y071432D01*
X047241Y071433D01*
X047235Y071435D01*
X047232Y071436D01*
X047226Y071438D01*
X047221Y07144D01*
X047215Y071441D01*
X047207Y071444D01*
X047198Y071446D01*
X047189Y071448D01*
X047179Y071451D01*
X047167Y071454D01*
X047155Y071457D01*
X047154D01*
X047152Y071458D01*
X047148Y071458D01*
X047144Y07146D01*
X047138Y071461D01*
X047131Y071463D01*
X047116Y071467D01*
X0471Y071472D01*
X047083Y071478D01*
X047068Y071483D01*
X047061Y071486D01*
X047056Y071489D01*
X047055D01*
X047054Y071489D01*
X04705Y071492D01*
X047043Y071496D01*
X047036Y071502D01*
X047027Y071509D01*
X047018Y071517D01*
X047009Y071526D01*
X047002Y071537D01*
X047001Y071538D01*
X046999Y071542D01*
X046996Y071548D01*
X046993Y071555D01*
X04699Y071565D01*
X046987Y071576D01*
X046984Y071588D01*
X046984Y0716D01*
Y071601D01*
Y071602D01*
Y071604D01*
Y071607D01*
X046985Y071615D01*
X046987Y071624D01*
X046989Y071635D01*
X046993Y071648D01*
X046998Y07166D01*
X047005Y071673D01*
Y071674D01*
X047006Y071674D01*
X04701Y071679D01*
X047015Y071685D01*
X047021Y071692D01*
X04703Y0717D01*
X047041Y071709D01*
X047055Y071717D01*
X04707Y071725D01*
X04707D01*
X047072Y071726D01*
X047074Y071726D01*
X047077Y071728D01*
X047081Y071729D01*
X047086Y071731D01*
X047097Y071734D01*
X047111Y071737D01*
X047127Y07174D01*
X047144Y071742D01*
X047164Y071743D01*
X047173D01*
X047178Y071742D01*
D02*
G37*
G36*
X048331Y071735D02*
X04834Y071734D01*
X048352Y071731D01*
X048365Y071728D01*
X048379Y071723D01*
X048392Y071717D01*
X048393D01*
X048393Y071717D01*
X048398Y071714D01*
X048405Y07171D01*
X048412Y071705D01*
X048421Y071697D01*
X04843Y071689D01*
X048439Y07168D01*
X048446Y071669D01*
X048447Y071667D01*
X048449Y071663D01*
X048452Y071657D01*
X048456Y071649D01*
X048459Y071639D01*
X048462Y071628D01*
X048464Y071615D01*
X048465Y071603D01*
Y071601D01*
Y071597D01*
X048464Y071591D01*
X048463Y071583D01*
X048461Y071573D01*
X048457Y071563D01*
X048453Y071552D01*
X048447Y071542D01*
X048446Y071541D01*
X048444Y071538D01*
X048439Y071532D01*
X048433Y071526D01*
X048426Y07152D01*
X048417Y071512D01*
X048407Y071506D01*
X048394Y071499D01*
X048395D01*
X048396Y071498D01*
X048399Y071498D01*
X048402Y071497D01*
X04841Y071494D01*
X04842Y071489D01*
X048432Y071484D01*
X048444Y071476D01*
X048455Y071467D01*
X048465Y071455D01*
X048466Y071454D01*
X048469Y07145D01*
X048473Y071442D01*
X048478Y071432D01*
X048482Y071421D01*
X048487Y071407D01*
X04849Y07139D01*
X04849Y071373D01*
Y071372D01*
Y07137D01*
Y071366D01*
X04849Y071361D01*
X048489Y071356D01*
X048487Y071349D01*
X048486Y071341D01*
X048484Y071333D01*
X048479Y071316D01*
X048474Y071306D01*
X04847Y071297D01*
X048464Y071287D01*
X048457Y071278D01*
X04845Y071268D01*
X048441Y071259D01*
X04844Y071259D01*
X048439Y071257D01*
X048436Y071255D01*
X048432Y071252D01*
X048427Y071248D01*
X048422Y071245D01*
X048415Y07124D01*
X048407Y071236D01*
X048399Y071232D01*
X048389Y071228D01*
X048379Y071224D01*
X048368Y07122D01*
X048356Y071217D01*
X048344Y071215D01*
X048331Y071213D01*
X048317Y071213D01*
X048311D01*
X048306Y071213D01*
X0483Y071214D01*
X048294Y071215D01*
X048286Y071216D01*
X048278Y071218D01*
X04826Y071222D01*
X048242Y07123D01*
X048232Y071234D01*
X048223Y071239D01*
X048214Y071246D01*
X048205Y071253D01*
X048205Y071253D01*
X048203Y071255D01*
X048201Y071257D01*
X048199Y07126D01*
X048195Y071264D01*
X048191Y071269D01*
X048187Y071274D01*
X048183Y071281D01*
X048178Y071288D01*
X048174Y071296D01*
X048166Y071313D01*
X048159Y071334D01*
X048157Y071345D01*
X048155Y071357D01*
X048218Y071365D01*
Y071364D01*
X048219Y071363D01*
X04822Y07136D01*
X04822Y071356D01*
X048221Y071352D01*
X048223Y071347D01*
X048226Y071336D01*
X048231Y071322D01*
X048238Y07131D01*
X048245Y071298D01*
X048254Y071287D01*
X048256Y071287D01*
X048259Y071284D01*
X048265Y07128D01*
X048272Y071276D01*
X048281Y071272D01*
X048292Y071268D01*
X048305Y071265D01*
X048318Y071265D01*
X048322D01*
X048325Y071265D01*
X048334Y071266D01*
X048344Y071268D01*
X048356Y071272D01*
X048368Y071277D01*
X048381Y071284D01*
X048393Y071295D01*
X048394Y071296D01*
X048398Y071301D01*
X048402Y071307D01*
X048408Y071316D01*
X048414Y071327D01*
X048419Y07134D01*
X048422Y071355D01*
X048424Y071371D01*
Y071372D01*
Y071373D01*
Y071376D01*
X048423Y071378D01*
X048422Y071387D01*
X04842Y071396D01*
X048417Y071408D01*
X048412Y07142D01*
X048405Y071432D01*
X048395Y071443D01*
X048393Y071444D01*
X04839Y071447D01*
X048384Y071452D01*
X048376Y071457D01*
X048365Y071462D01*
X048353Y071467D01*
X048339Y071469D01*
X048323Y071471D01*
X048316D01*
X048311Y07147D01*
X048305Y071469D01*
X048297Y071468D01*
X048288Y071467D01*
X048279Y071464D01*
X048286Y07152D01*
X04829D01*
X048293Y071519D01*
X048302D01*
X048311Y071521D01*
X04832Y071522D01*
X048331Y071524D01*
X048344Y071528D01*
X048356Y071533D01*
X048368Y07154D01*
X048369D01*
X04837Y071541D01*
X048373Y071543D01*
X048379Y071549D01*
X048385Y071555D01*
X04839Y071565D01*
X048396Y071576D01*
X048399Y071589D01*
X048401Y071596D01*
Y071604D01*
Y071605D01*
Y071606D01*
Y07161D01*
X048399Y071616D01*
X048398Y071624D01*
X048395Y071633D01*
X048391Y071643D01*
X048385Y071652D01*
X048377Y071661D01*
X048376Y071662D01*
X048373Y071665D01*
X048368Y071669D01*
X048361Y071673D01*
X048352Y071677D01*
X048342Y07168D01*
X04833Y071683D01*
X048316Y071684D01*
X048311D01*
X048304Y071683D01*
X048295Y071681D01*
X048285Y071678D01*
X048276Y071674D01*
X048265Y071669D01*
X048256Y071661D01*
X048255Y07166D01*
X048252Y071657D01*
X048248Y071652D01*
X048242Y071644D01*
X048237Y071635D01*
X048232Y071623D01*
X048228Y071609D01*
X048225Y071592D01*
X048162Y071603D01*
Y071604D01*
X048163Y071606D01*
X048163Y071609D01*
X048164Y071614D01*
X048166Y071619D01*
X048168Y071625D01*
X048172Y071639D01*
X04818Y071655D01*
X048188Y071672D01*
X0482Y071687D01*
X048214Y071701D01*
X048214Y071702D01*
X048216Y071703D01*
X048218Y071704D01*
X048221Y071706D01*
X048225Y071709D01*
X04823Y071712D01*
X048235Y071715D01*
X048242Y071719D01*
X048257Y071725D01*
X048274Y071731D01*
X048294Y071734D01*
X048304Y071736D01*
X048322D01*
X048331Y071735D01*
D02*
G37*
G36*
X048103Y071376D02*
X047909D01*
Y071438D01*
X048103D01*
Y071376D01*
D02*
G37*
G36*
X051967Y071222D02*
X051902D01*
Y07165D01*
X051752Y071222D01*
X051692D01*
X051544Y071657D01*
Y071222D01*
X051479D01*
Y071734D01*
X05158D01*
X051701Y07137D01*
Y07137D01*
X051702Y071368D01*
X051703Y071366D01*
X051704Y071362D01*
X051707Y071353D01*
X051711Y071342D01*
X051715Y07133D01*
X051719Y071317D01*
X051723Y071305D01*
X051726Y071295D01*
X051726Y071296D01*
X051727Y0713D01*
X051729Y071307D01*
X051732Y071316D01*
X051736Y071327D01*
X051741Y071341D01*
X051746Y071358D01*
X051753Y071377D01*
X051876Y071734D01*
X051967D01*
Y071222D01*
D02*
G37*
G36*
X049647D02*
X04958D01*
X049473Y071612D01*
Y071612D01*
X049472Y071614D01*
X049472Y071616D01*
X049471Y07162D01*
X049469Y071628D01*
X049466Y071637D01*
X049463Y071648D01*
X049461Y071657D01*
X049458Y071666D01*
X049458Y071669D01*
X049457Y071672D01*
Y071671D01*
X049456Y07167D01*
X049455Y071666D01*
X049454Y071659D01*
X049452Y071651D01*
X049449Y071642D01*
X049446Y071632D01*
X049444Y071621D01*
X049441Y071612D01*
X049333Y071222D01*
X049262D01*
X049128Y071734D01*
X049199D01*
X049275Y071398D01*
Y071397D01*
X049276Y071396D01*
X049276Y071393D01*
X049277Y071389D01*
X049278Y071384D01*
X049279Y071378D01*
X049281Y071372D01*
X049282Y071364D01*
X049286Y071349D01*
X04929Y071331D01*
X049293Y071312D01*
X049297Y071293D01*
Y071293D01*
X049298Y071296D01*
X049299Y0713D01*
X0493Y071306D01*
X049301Y071312D01*
X049304Y071319D01*
X049307Y071336D01*
X049312Y071352D01*
X049313Y07136D01*
X049315Y071367D01*
X049317Y071374D01*
X049318Y07138D01*
X04932Y071384D01*
X049321Y071387D01*
X049418Y071734D01*
X0495D01*
X049572Y071474D01*
Y071473D01*
X049574Y071469D01*
X049575Y071464D01*
X049577Y071458D01*
X049579Y071449D01*
X049582Y071439D01*
X049585Y071428D01*
X049588Y071415D01*
X049592Y071401D01*
X049594Y071387D01*
X049601Y071357D01*
X049608Y071325D01*
X049613Y071293D01*
Y071293D01*
X049614Y071295D01*
Y071298D01*
X049615Y071302D01*
X049616Y071306D01*
X049617Y071311D01*
X049618Y071318D01*
X04962Y071325D01*
X049624Y071341D01*
X049629Y071361D01*
X049633Y071381D01*
X049639Y071404D01*
X049719Y071734D01*
X049788D01*
X049647Y071222D01*
D02*
G37*
G36*
X050095Y071733D02*
X050102D01*
X050118Y071732D01*
X050134Y07173D01*
X050152Y071728D01*
X050168Y071724D01*
X050176Y071722D01*
X050183Y07172D01*
X050184D01*
X050184Y071719D01*
X050189Y071717D01*
X050195Y071714D01*
X050203Y071709D01*
X050212Y071702D01*
X050222Y071693D01*
X050231Y071683D01*
X05024Y071671D01*
Y07167D01*
X05024Y071669D01*
X050243Y071665D01*
X050246Y071657D01*
X050251Y071648D01*
X050255Y071637D01*
X050258Y071623D01*
X05026Y071609D01*
X050261Y071594D01*
Y071593D01*
Y071592D01*
Y071589D01*
X05026Y071585D01*
Y07158D01*
X05026Y071575D01*
X050257Y071562D01*
X050252Y071547D01*
X050246Y071532D01*
X050238Y071516D01*
X050232Y071509D01*
X050226Y071501D01*
X050225Y071501D01*
X050224Y0715D01*
X050222Y071498D01*
X050219Y071495D01*
X050215Y071492D01*
X050211Y071489D01*
X050205Y071486D01*
X050199Y071481D01*
X050192Y071478D01*
X050184Y071474D01*
X050175Y071469D01*
X050165Y071466D01*
X050154Y071463D01*
X050143Y071459D01*
X05013Y071457D01*
X050117Y071455D01*
X050118Y071454D01*
X050121Y071452D01*
X050126Y07145D01*
X050132Y071447D01*
X050145Y071438D01*
X050152Y071433D01*
X050158Y071429D01*
X050159Y071427D01*
X050163Y071424D01*
X050169Y071418D01*
X050176Y07141D01*
X050184Y0714D01*
X050194Y071389D01*
X050203Y071376D01*
X050214Y071361D01*
X050302Y071222D01*
X050218D01*
X05015Y071328D01*
Y071329D01*
X050149Y07133D01*
X050147Y071333D01*
X050145Y071336D01*
X05014Y071344D01*
X050133Y071354D01*
X050125Y071365D01*
X050117Y071377D01*
X050109Y071388D01*
X050101Y071398D01*
X050101Y071399D01*
X050098Y071402D01*
X050095Y071407D01*
X05009Y071412D01*
X050078Y071423D01*
X050073Y071428D01*
X050067Y071432D01*
X050066Y071433D01*
X050064Y071434D01*
X050061Y071435D01*
X050057Y071438D01*
X050053Y07144D01*
X050047Y071442D01*
X050036Y071446D01*
X050035D01*
X050033Y071447D01*
X05003D01*
X050027Y071447D01*
X050021Y071448D01*
X050016D01*
X050007Y071449D01*
X04992D01*
Y071222D01*
X049852D01*
Y071734D01*
X05009D01*
X050095Y071733D01*
D02*
G37*
G36*
X048735Y071735D02*
X048741Y071734D01*
X048748Y071734D01*
X048756Y071732D01*
X048764Y071731D01*
X048783Y071726D01*
X048803Y071718D01*
X048812Y071714D01*
X048822Y071709D01*
X048831Y071702D01*
X048839Y071694D01*
X04884Y071694D01*
X048841Y071693D01*
X048843Y07169D01*
X048846Y071687D01*
X048849Y071683D01*
X048853Y071678D01*
X048857Y071673D01*
X048861Y071666D01*
X048869Y071652D01*
X048876Y071635D01*
X048879Y071626D01*
X04888Y071615D01*
X048882Y071605D01*
X048883Y071594D01*
Y071592D01*
Y071589D01*
X048882Y071583D01*
X048881Y071575D01*
X04888Y071566D01*
X048877Y071555D01*
X048874Y071544D01*
X048869Y071533D01*
X048869Y071532D01*
X048867Y071528D01*
X048864Y071522D01*
X04886Y071514D01*
X048854Y071505D01*
X048846Y071494D01*
X048837Y071483D01*
X048827Y07147D01*
X048826Y071469D01*
X048822Y071464D01*
X048818Y071461D01*
X048815Y071457D01*
X04881Y071452D01*
X048804Y071447D01*
X048798Y071441D01*
X048791Y071434D01*
X048783Y071427D01*
X048775Y071418D01*
X048765Y07141D01*
X048755Y071401D01*
X048743Y071391D01*
X048731Y071381D01*
X04873Y07138D01*
X048729Y071378D01*
X048726Y071376D01*
X048722Y071373D01*
X048718Y071369D01*
X048712Y071364D01*
X048701Y071355D01*
X048688Y071344D01*
X048676Y071333D01*
X048666Y071323D01*
X048661Y071319D01*
X048658Y071316D01*
X048657Y071315D01*
X048655Y071313D01*
X048652Y07131D01*
X048648Y071305D01*
X048644Y0713D01*
X04864Y071295D01*
X048631Y071282D01*
X048883D01*
Y071222D01*
X048544D01*
Y071222D01*
Y071225D01*
Y07123D01*
X048544Y071236D01*
X048545Y071242D01*
X048547Y07125D01*
X048548Y071257D01*
X048551Y071265D01*
Y071266D01*
X048552Y071267D01*
X048553Y071271D01*
X048556Y071278D01*
X048561Y071287D01*
X048567Y071297D01*
X048574Y071309D01*
X048582Y071321D01*
X048593Y071333D01*
Y071334D01*
X048594Y071335D01*
X048598Y071339D01*
X048604Y071346D01*
X048614Y071356D01*
X048625Y071367D01*
X048639Y07138D01*
X048656Y071395D01*
X048675Y07141D01*
X048675Y071411D01*
X048678Y071413D01*
X048683Y071417D01*
X048688Y071421D01*
X048695Y071427D01*
X048703Y071434D01*
X048711Y071441D01*
X048721Y07145D01*
X048739Y071467D01*
X048758Y071485D01*
X048766Y071494D01*
X048775Y071503D01*
X048782Y071511D01*
X048788Y071519D01*
Y07152D01*
X048789Y071521D01*
X048791Y071523D01*
X048792Y071526D01*
X048797Y071534D01*
X048803Y071543D01*
X048809Y071555D01*
X048814Y071568D01*
X048817Y071582D01*
X048818Y071595D01*
Y071596D01*
Y071597D01*
X048817Y071601D01*
X048817Y071609D01*
X048815Y071617D01*
X048812Y071627D01*
X048806Y071637D01*
X0488Y071648D01*
X048791Y071658D01*
X048789Y07166D01*
X048786Y071663D01*
X04878Y071666D01*
X048772Y071672D01*
X048762Y071676D01*
X04875Y07168D01*
X048736Y071683D01*
X048721Y071684D01*
X048716D01*
X048713Y071683D01*
X048704Y071683D01*
X048694Y07168D01*
X048683Y071677D01*
X04867Y071672D01*
X048658Y071666D01*
X048647Y071657D01*
X048646Y071655D01*
X048643Y071652D01*
X048638Y071646D01*
X048634Y071637D01*
X048629Y071626D01*
X048624Y071613D01*
X048621Y071598D01*
X04862Y071581D01*
X048556Y071588D01*
Y071589D01*
X048556Y071591D01*
Y071595D01*
X048557Y0716D01*
X048558Y071606D01*
X04856Y071612D01*
X048562Y07162D01*
X048564Y071629D01*
X04857Y071646D01*
X048579Y071664D01*
X048584Y071673D01*
X048591Y071682D01*
X048598Y07169D01*
X048605Y071697D01*
X048606Y071698D01*
X048607Y071699D01*
X04861Y071701D01*
X048613Y071703D01*
X048618Y071706D01*
X048623Y071709D01*
X048629Y071713D01*
X048636Y071717D01*
X048644Y07172D01*
X048653Y071724D01*
X048663Y071727D01*
X048673Y07173D01*
X048684Y071732D01*
X048696Y071734D01*
X048709Y071735D01*
X048722Y071736D01*
X048729D01*
X048735Y071735D01*
D02*
G37*
G36*
X047686Y071733D02*
X047699Y071732D01*
X047712Y071731D01*
X047724Y07173D01*
X047736Y071729D01*
X047737D01*
X047742Y071727D01*
X047749Y071726D01*
X047758Y071723D01*
X047767Y07172D01*
X047778Y071715D01*
X047789Y07171D01*
X047798Y071704D01*
X0478Y071703D01*
X047803Y071701D01*
X047807Y071697D01*
X047813Y071691D01*
X04782Y071685D01*
X047827Y071676D01*
X047834Y071666D01*
X04784Y071655D01*
X047841Y071654D01*
X047842Y07165D01*
X047845Y071643D01*
X047848Y071635D01*
X04785Y071624D01*
X047853Y071612D01*
X047855Y071599D01*
X047855Y071585D01*
Y071584D01*
Y071582D01*
Y071579D01*
X047855Y071574D01*
X047854Y071569D01*
X047853Y071562D01*
X047852Y071555D01*
X04785Y071546D01*
X047845Y071529D01*
X047842Y071521D01*
X047838Y071511D01*
X047833Y071501D01*
X047827Y071492D01*
X047821Y071484D01*
X047813Y071475D01*
X047813Y071474D01*
X047811Y071472D01*
X047809Y07147D01*
X047805Y071468D01*
X047801Y071464D01*
X047795Y071461D01*
X047787Y071456D01*
X047779Y071452D01*
X04777Y071448D01*
X047759Y071444D01*
X047747Y07144D01*
X047733Y071437D01*
X047718Y071434D01*
X047702Y071432D01*
X047683Y07143D01*
X047664Y07143D01*
X047533D01*
Y071222D01*
X047465D01*
Y071734D01*
X047675D01*
X047686Y071733D01*
D02*
G37*
G36*
X046882Y071673D02*
X046579D01*
Y071517D01*
X046862D01*
Y071456D01*
X046579D01*
Y071282D01*
X046893D01*
Y071222D01*
X046511D01*
Y071734D01*
X046882D01*
Y071673D01*
D02*
G37*
G36*
X05116Y071742D02*
X051167D01*
X051174Y071741D01*
X051183Y07174D01*
X051191Y071738D01*
X051211Y071734D01*
X051233Y071729D01*
X051254Y07172D01*
X051265Y071714D01*
X051276Y071709D01*
X051277Y071708D01*
X051279Y071707D01*
X051282Y071705D01*
X051286Y071703D01*
X051291Y071699D01*
X051296Y071694D01*
X051309Y071684D01*
X051322Y071671D01*
X051337Y071655D01*
X051351Y071635D01*
X051363Y071614D01*
Y071613D01*
X051365Y071611D01*
X051366Y071608D01*
X051368Y071603D01*
X05137Y071598D01*
X051373Y071591D01*
X051376Y071583D01*
X051379Y071574D01*
X051381Y071564D01*
X051384Y071554D01*
X051387Y071542D01*
X051389Y07153D01*
X051392Y071504D01*
X051393Y071476D01*
Y071475D01*
Y071472D01*
Y071469D01*
X051393Y071463D01*
Y071456D01*
X051392Y071448D01*
X05139Y071439D01*
X05139Y07143D01*
X051386Y071408D01*
X05138Y071384D01*
X051372Y071361D01*
X051368Y071349D01*
X051362Y071337D01*
Y071336D01*
X05136Y071334D01*
X051359Y071331D01*
X051356Y071327D01*
X051353Y071322D01*
X051349Y071316D01*
X051339Y071302D01*
X051326Y071287D01*
X051311Y071272D01*
X051294Y071257D01*
X051273Y071244D01*
X051272D01*
X051271Y071242D01*
X051267Y071241D01*
X051262Y071239D01*
X051257Y071236D01*
X051251Y071234D01*
X051244Y071231D01*
X051236Y071228D01*
X051227Y071225D01*
X051217Y071222D01*
X051196Y071218D01*
X051173Y071214D01*
X051148Y071213D01*
X051141D01*
X051137Y071213D01*
X05113D01*
X051123Y071215D01*
X051114Y071216D01*
X051105Y071217D01*
X051085Y071222D01*
X051063Y071228D01*
X051041Y071236D01*
X05103Y071242D01*
X051019Y071248D01*
X051018Y071248D01*
X051017Y071249D01*
X051014Y071251D01*
X051009Y071254D01*
X051005Y071257D01*
X051Y071262D01*
X050987Y071273D01*
X050973Y071286D01*
X050958Y071302D01*
X050945Y071321D01*
X050932Y071342D01*
Y071343D01*
X050931Y071345D01*
X050929Y071348D01*
X050928Y071353D01*
X050926Y071358D01*
X050924Y071365D01*
X050921Y071373D01*
X050918Y071381D01*
X050915Y07139D01*
X050912Y0714D01*
X050908Y071422D01*
X050905Y071445D01*
X050904Y07147D01*
Y071471D01*
Y071472D01*
Y071476D01*
X050904Y071483D01*
Y071492D01*
X050906Y071502D01*
X050907Y071515D01*
X050909Y071529D01*
X050912Y071543D01*
X050915Y071559D01*
X05092Y071575D01*
X050926Y071592D01*
X050932Y071609D01*
X05094Y071625D01*
X050949Y071641D01*
X05096Y071656D01*
X050972Y07167D01*
X050972Y071671D01*
X050975Y071673D01*
X050979Y071677D01*
X050984Y071681D01*
X050991Y071687D01*
X050999Y071693D01*
X051009Y0717D01*
X05102Y071706D01*
X051032Y071713D01*
X051045Y07172D01*
X05106Y071726D01*
X051075Y071731D01*
X051092Y071736D01*
X05111Y07174D01*
X051128Y071742D01*
X051148Y071743D01*
X051155D01*
X05116Y071742D01*
D02*
G37*
G36*
X050604D02*
X05061D01*
X050617Y071741D01*
X050626Y07174D01*
X050635Y071738D01*
X050654Y071734D01*
X050676Y071729D01*
X050698Y07172D01*
X050709Y071714D01*
X05072Y071709D01*
X050721Y071708D01*
X050722Y071707D01*
X050725Y071705D01*
X05073Y071703D01*
X050734Y071699D01*
X05074Y071694D01*
X050753Y071684D01*
X050766Y071671D01*
X050781Y071655D01*
X050795Y071635D01*
X050807Y071614D01*
Y071613D01*
X050808Y071611D01*
X05081Y071608D01*
X050811Y071603D01*
X050814Y071598D01*
X050816Y071591D01*
X050819Y071583D01*
X050822Y071574D01*
X050824Y071564D01*
X050827Y071554D01*
X05083Y071542D01*
X050832Y07153D01*
X050835Y071504D01*
X050837Y071476D01*
Y071475D01*
Y071472D01*
Y071469D01*
X050836Y071463D01*
Y071456D01*
X050835Y071448D01*
X050834Y071439D01*
X050833Y07143D01*
X05083Y071408D01*
X050824Y071384D01*
X050815Y071361D01*
X050811Y071349D01*
X050805Y071337D01*
Y071336D01*
X050804Y071334D01*
X050802Y071331D01*
X050799Y071327D01*
X050796Y071322D01*
X050793Y071316D01*
X050782Y071302D01*
X05077Y071287D01*
X050755Y071272D01*
X050737Y071257D01*
X050716Y071244D01*
X050716D01*
X050714Y071242D01*
X05071Y071241D01*
X050706Y071239D01*
X050701Y071236D01*
X050695Y071234D01*
X050687Y071231D01*
X050679Y071228D01*
X05067Y071225D01*
X050661Y071222D01*
X050639Y071218D01*
X050616Y071214D01*
X050592Y071213D01*
X050585D01*
X05058Y071213D01*
X050573D01*
X050566Y071215D01*
X050558Y071216D01*
X050548Y071217D01*
X050528Y071222D01*
X050507Y071228D01*
X050485Y071236D01*
X050474Y071242D01*
X050462Y071248D01*
X050462Y071248D01*
X05046Y071249D01*
X050457Y071251D01*
X050453Y071254D01*
X050448Y071257D01*
X050443Y071262D01*
X050431Y071273D01*
X050417Y071286D01*
X050402Y071302D01*
X050388Y071321D01*
X050376Y071342D01*
Y071343D01*
X050374Y071345D01*
X050373Y071348D01*
X050371Y071353D01*
X050369Y071358D01*
X050367Y071365D01*
X050364Y071373D01*
X050362Y071381D01*
X050359Y07139D01*
X050356Y0714D01*
X050351Y071422D01*
X050349Y071445D01*
X050347Y07147D01*
Y071471D01*
Y071472D01*
Y071476D01*
X050348Y071483D01*
Y071492D01*
X050349Y071502D01*
X050351Y071515D01*
X050353Y071529D01*
X050356Y071543D01*
X050359Y071559D01*
X050363Y071575D01*
X050369Y071592D01*
X050376Y071609D01*
X050383Y071625D01*
X050393Y071641D01*
X050403Y071656D01*
X050415Y07167D01*
X050416Y071671D01*
X050418Y071673D01*
X050423Y071677D01*
X050428Y071681D01*
X050434Y071687D01*
X050443Y071693D01*
X050452Y0717D01*
X050463Y071706D01*
X050475Y071713D01*
X050488Y07172D01*
X050503Y071726D01*
X050519Y071731D01*
X050536Y071736D01*
X050554Y07174D01*
X050572Y071742D01*
X050592Y071743D01*
X050599D01*
X050604Y071742D01*
D02*
G37*
G36*
X056088Y060717D02*
X055997D01*
X056069Y060871D01*
X056231D01*
X056088Y060717D01*
D02*
G37*
G36*
X055595Y059892D02*
X055442D01*
Y060223D01*
X055143D01*
Y059892D01*
X05499D01*
Y060648D01*
X055143D01*
Y060351D01*
X055442D01*
Y060648D01*
X055595D01*
Y059892D01*
D02*
G37*
G36*
X054829D02*
X054675D01*
X054368Y06039D01*
Y059892D01*
X054227D01*
Y060648D01*
X054375D01*
X054688Y060139D01*
Y060648D01*
X054829D01*
Y059892D01*
D02*
G37*
G36*
X057301Y059892D02*
X05716D01*
X057159Y060486D01*
X05701Y059892D01*
X056863D01*
X056714Y060486D01*
Y059892D01*
X056573D01*
Y060648D01*
X056801D01*
X056937Y060131D01*
X057071Y060648D01*
X057301Y060648D01*
Y059892D01*
D02*
G37*
G36*
X057959Y060651D02*
X057968D01*
X057977Y06065D01*
X057988Y060648D01*
X058001Y060645D01*
X058015Y060642D01*
X05803Y060636D01*
X058045Y060631D01*
X058061Y060623D01*
X058077Y060614D01*
X058092Y060604D01*
X058108Y060592D01*
X058123Y060578D01*
X058137Y060563D01*
X058138Y060562D01*
X05814Y060558D01*
X058144Y060553D01*
X058149Y060545D01*
X058155Y060536D01*
X058161Y060523D01*
X058168Y060509D01*
X058174Y060493D01*
X058181Y060473D01*
X058188Y060451D01*
X058194Y060427D01*
X058199Y060401D01*
X058205Y060372D01*
X058208Y06034D01*
X05821Y060306D01*
X058211Y060269D01*
Y060268D01*
Y060267D01*
Y060263D01*
Y06026D01*
Y060249D01*
X05821Y060235D01*
X058209Y060217D01*
X058207Y060198D01*
X058205Y060177D01*
X058201Y060154D01*
X058197Y060129D01*
X058193Y060105D01*
X058186Y06008D01*
X058179Y060055D01*
X05817Y060032D01*
X058159Y060009D01*
X058148Y059988D01*
X058134Y059969D01*
X058133Y059968D01*
X05813Y059965D01*
X058126Y059961D01*
X05812Y059955D01*
X058112Y059949D01*
X058103Y05994D01*
X058092Y059932D01*
X05808Y059923D01*
X058067Y059915D01*
X058052Y059907D01*
X058035Y059899D01*
X058018Y059892D01*
X057998Y059886D01*
X057979Y059882D01*
X057958Y059879D01*
X057935Y059878D01*
X057926D01*
X057921Y059879D01*
X057913D01*
X057904Y05988D01*
X057883Y059883D01*
X05786Y05989D01*
X057838Y059897D01*
X057813Y059909D01*
X057803Y059916D01*
X057792Y059925D01*
X057791Y059926D01*
X057789Y059927D01*
X057786Y05993D01*
X057783Y059933D01*
X057779Y059939D01*
X057773Y059944D01*
X057769Y059952D01*
X057762Y059959D01*
X057757Y059969D01*
X05775Y059979D01*
X057745Y059991D01*
X057739Y060004D01*
X057734Y060017D01*
X057729Y060033D01*
X057725Y060048D01*
X057722Y060066D01*
X057862Y060082D01*
Y06008D01*
X057863Y060074D01*
X057864Y060067D01*
X057867Y060058D01*
X05787Y060047D01*
X057875Y060036D01*
X05788Y060026D01*
X057888Y060017D01*
X057889Y060016D01*
X057892Y060014D01*
X057897Y060011D01*
X057903Y060008D01*
X057912Y060004D01*
X057921Y060001D01*
X057933Y059999D01*
X057945Y059998D01*
X057947D01*
X057952Y059999D01*
X05796Y06D01*
X057971Y060003D01*
X057983Y060008D01*
X057995Y060015D01*
X058008Y060025D01*
X05802Y060038D01*
X058021Y06004D01*
X058023Y060043D01*
X058026Y060047D01*
X058028Y060051D01*
X058031Y060058D01*
X058033Y060066D01*
X058038Y060075D01*
X058041Y060086D01*
X058044Y060098D01*
X058047Y060113D01*
X058051Y060128D01*
X058054Y060145D01*
X058056Y060165D01*
X058058Y060187D01*
X058061Y06021D01*
X058059Y060209D01*
X058058Y060208D01*
X058055Y060204D01*
X058051Y0602D01*
X058045Y060196D01*
X058039Y06019D01*
X058023Y060178D01*
X058004Y060166D01*
X05798Y060156D01*
X057967Y060152D01*
X057953Y06015D01*
X057939Y060147D01*
X057924Y060146D01*
X057915D01*
X057909Y060147D01*
X057901Y060149D01*
X057892Y06015D01*
X057871Y060155D01*
X057847Y060163D01*
X057835Y060169D01*
X057822Y060176D01*
X057809Y060184D01*
X057796Y060192D01*
X057783Y060203D01*
X057771Y060215D01*
X05777Y060216D01*
X057768Y060219D01*
X057765Y060223D01*
X057761Y060227D01*
X057756Y060235D01*
X05775Y060243D01*
X057745Y060252D01*
X057739Y060263D01*
X057733Y060275D01*
X057727Y06029D01*
X057722Y060304D01*
X057716Y06032D01*
X057712Y060337D01*
X05771Y060355D01*
X057707Y060375D01*
X057706Y060395D01*
Y060396D01*
Y0604D01*
Y060405D01*
X057707Y060414D01*
X057709Y060424D01*
X05771Y060435D01*
X057712Y060448D01*
X057715Y060461D01*
X057723Y060491D01*
X057728Y060507D01*
X057735Y060522D01*
X057742Y060538D01*
X057752Y060553D01*
X057762Y060567D01*
X057774Y060581D01*
X057775Y060583D01*
X057777Y060585D01*
X057781Y060588D01*
X057786Y060592D01*
X057794Y060598D01*
X057801Y060604D01*
X057811Y06061D01*
X057822Y060617D01*
X057833Y060624D01*
X057847Y06063D01*
X057862Y060636D01*
X057877Y060642D01*
X057893Y060646D01*
X057911Y060649D01*
X057928Y060651D01*
X057948Y060652D01*
X057953D01*
X057959Y060651D01*
D02*
G37*
G36*
X056103Y060661D02*
X056114D01*
X056128Y060659D01*
X056144Y060657D01*
X056163Y060654D01*
X056183Y060649D01*
X056203Y060644D01*
X056225Y060637D01*
X056247Y060628D01*
X05627Y060619D01*
X056292Y060607D01*
X056314Y060592D01*
X056335Y060576D01*
X056354Y060557D01*
X056355Y060556D01*
X056359Y060553D01*
X056364Y060546D01*
X05637Y060539D01*
X056377Y060528D01*
X056386Y060515D01*
X056395Y060499D01*
X056405Y060482D01*
X056414Y060463D01*
X056423Y060442D01*
X056432Y060417D01*
X05644Y060392D01*
X056446Y060364D01*
X056451Y060334D01*
X056454Y060303D01*
X056455Y060269D01*
Y060267D01*
Y060261D01*
X056454Y060251D01*
Y060238D01*
X056452Y060223D01*
X056449Y060205D01*
X056446Y060185D01*
X056443Y060164D01*
X056437Y060141D01*
X056431Y060117D01*
X056422Y060093D01*
X056412Y060069D01*
X056401Y060046D01*
X056387Y060023D01*
X056372Y060001D01*
X056354Y05998D01*
X056353Y059979D01*
X05635Y059976D01*
X056344Y05997D01*
X056336Y059964D01*
X056326Y059956D01*
X056314Y059947D01*
X0563Y059939D01*
X056284Y059929D01*
X056266Y059919D01*
X056246Y05991D01*
X056224Y059902D01*
X0562Y059894D01*
X056175Y059887D01*
X056148Y059882D01*
X056119Y059879D01*
X056089Y059878D01*
X056081D01*
X056072Y059879D01*
X056061Y05988D01*
X056047Y059881D01*
X056031Y059883D01*
X056012Y059886D01*
X055993Y059891D01*
X055971Y059896D01*
X05595Y059903D01*
X055927Y059911D01*
X055905Y059921D01*
X055882Y059932D01*
X055861Y059946D01*
X055841Y059962D01*
X055821Y05998D01*
X05582Y059981D01*
X055817Y059985D01*
X055812Y059991D01*
X055806Y059999D01*
X055798Y06001D01*
X055789Y060023D01*
X055781Y060037D01*
X055772Y060055D01*
X055762Y060073D01*
X055753Y060095D01*
X055744Y060118D01*
X055737Y060143D01*
X05573Y06017D01*
X055726Y0602D01*
X055723Y060232D01*
X055721Y060264D01*
Y060266D01*
Y06027D01*
Y060275D01*
X055723Y060284D01*
Y060294D01*
X055724Y060305D01*
X055725Y060318D01*
X055726Y060332D01*
X05573Y060363D01*
X055736Y060396D01*
X055744Y060428D01*
X055755Y060459D01*
Y06046D01*
X055756Y060461D01*
X055759Y060464D01*
X05576Y060469D01*
X055766Y06048D01*
X055774Y060494D01*
X055784Y06051D01*
X055796Y060527D01*
X05581Y060545D01*
X055825Y060563D01*
X055826Y060564D01*
X055828Y060565D01*
X055833Y06057D01*
X055843Y060579D01*
X055855Y060589D01*
X055869Y0606D01*
X055885Y060612D01*
X055904Y060623D01*
X055924Y060632D01*
X055925D01*
X055927Y060633D01*
X055931Y060635D01*
X055937Y060636D01*
X055943Y060639D01*
X055951Y060642D01*
X055961Y060644D01*
X055971Y060647D01*
X055995Y060652D01*
X056022Y060658D01*
X056054Y060661D01*
X056087Y060662D01*
X056094D01*
X056103Y060661D01*
D02*
G37*
%LPC*%
G36*
X050081Y071677D02*
X04992D01*
Y071507D01*
X050073D01*
X050081Y071508D01*
X050092Y071509D01*
X050104Y071509D01*
X050115Y071511D01*
X050127Y071513D01*
X050138Y071516D01*
X050139Y071517D01*
X050142Y071518D01*
X050147Y071521D01*
X050152Y071524D01*
X050159Y071528D01*
X050166Y071533D01*
X050172Y07154D01*
X050178Y071547D01*
X050178Y071548D01*
X05018Y071551D01*
X050182Y071555D01*
X050185Y071561D01*
X050187Y071568D01*
X050189Y071575D01*
X050191Y071584D01*
X050192Y071593D01*
Y071594D01*
Y071595D01*
X050191Y071599D01*
X05019Y071606D01*
X050189Y071615D01*
X050185Y071623D01*
X050181Y071634D01*
X050174Y071643D01*
X050165Y071653D01*
X050164Y071654D01*
X05016Y071657D01*
X050154Y07166D01*
X050144Y071665D01*
X050133Y071669D01*
X050118Y071673D01*
X050101Y071676D01*
X050081Y071677D01*
D02*
G37*
G36*
X047679Y071673D02*
X047533D01*
Y07149D01*
X04767D01*
X047676Y071491D01*
X047681D01*
X047687Y071492D01*
X047701Y071493D01*
X047716Y071496D01*
X047732Y071501D01*
X047746Y071507D01*
X047753Y07151D01*
X047758Y071515D01*
X047759Y071516D01*
X047762Y071519D01*
X047767Y071525D01*
X047772Y071532D01*
X047777Y071542D01*
X047781Y071554D01*
X047784Y071567D01*
X047786Y071583D01*
Y071583D01*
Y071584D01*
Y071588D01*
X047785Y071595D01*
X047784Y071602D01*
X047782Y07161D01*
X047779Y07162D01*
X047775Y071629D01*
X04777Y071637D01*
X047769Y071638D01*
X047767Y071641D01*
X047763Y071645D01*
X047759Y07165D01*
X047752Y071655D01*
X047744Y07166D01*
X047736Y071664D01*
X047727Y071668D01*
X047726D01*
X047723Y071669D01*
X047719Y071669D01*
X047713Y071671D01*
X047704Y071672D01*
X047693Y071672D01*
X047679Y071673D01*
D02*
G37*
G36*
X051148Y071684D02*
X051142D01*
X051137Y071683D01*
X05113Y071683D01*
X051123Y071681D01*
X051115Y07168D01*
X051106Y071678D01*
X051087Y071672D01*
X051077Y071668D01*
X051066Y071663D01*
X051055Y071657D01*
X051045Y071651D01*
X051035Y071643D01*
X051025Y071635D01*
X051024Y071634D01*
X051023Y071632D01*
X05102Y071629D01*
X051017Y071625D01*
X051013Y07162D01*
X051009Y071613D01*
X051004Y071605D01*
X050999Y071595D01*
X050995Y071585D01*
X050989Y071572D01*
X050985Y071559D01*
X050981Y071544D01*
X050978Y071528D01*
X050975Y071509D01*
X050974Y07149D01*
X050973Y071469D01*
Y071469D01*
Y071466D01*
Y071461D01*
X050974Y071454D01*
X050975Y071447D01*
X050976Y071438D01*
X050978Y071427D01*
X050979Y071417D01*
X050985Y071393D01*
X050989Y071381D01*
X050994Y071369D01*
X051Y071357D01*
X051006Y071345D01*
X051014Y071334D01*
X051023Y071324D01*
X051023Y071323D01*
X051025Y071322D01*
X051028Y071319D01*
X051032Y071316D01*
X051037Y071311D01*
X051043Y071307D01*
X051049Y071302D01*
X051057Y071297D01*
X051066Y071292D01*
X051075Y071287D01*
X051086Y071283D01*
X051097Y071279D01*
X051109Y071276D01*
X05112Y071273D01*
X051134Y071271D01*
X051148Y07127D01*
X051151D01*
X051155Y071271D01*
X05116D01*
X051167Y071272D01*
X051174Y071273D01*
X051183Y071275D01*
X051192Y071277D01*
X051202Y07128D01*
X051212Y071284D01*
X051223Y071287D01*
X051234Y071293D01*
X051244Y071299D01*
X051254Y071306D01*
X051265Y071314D01*
X051274Y071324D01*
X051275Y071324D01*
X051276Y071326D01*
X051279Y07133D01*
X051282Y071334D01*
X051286Y071339D01*
X05129Y071346D01*
X051294Y071354D01*
X051299Y071363D01*
X051304Y071373D01*
X051308Y071385D01*
X051312Y071398D01*
X051316Y071411D01*
X051319Y071426D01*
X051322Y071442D01*
X051323Y071459D01*
X051324Y071477D01*
Y071478D01*
Y07148D01*
Y071483D01*
Y071487D01*
X051323Y071492D01*
Y071499D01*
X051322Y071506D01*
X051321Y071514D01*
X051319Y071531D01*
X051315Y071549D01*
X05131Y071568D01*
X051302Y071586D01*
Y071586D01*
X051302Y071588D01*
X0513Y07159D01*
X051299Y071593D01*
X051294Y071602D01*
X051287Y071612D01*
X051278Y071624D01*
X051267Y071636D01*
X051254Y071648D01*
X05124Y071658D01*
X051239D01*
X051239Y07166D01*
X051237Y07166D01*
X051233Y071663D01*
X051229Y071664D01*
X051225Y071666D01*
X051214Y071672D01*
X0512Y071676D01*
X051185Y07168D01*
X051167Y071683D01*
X051148Y071684D01*
D02*
G37*
G36*
X050592D02*
X050585D01*
X05058Y071683D01*
X050573Y071683D01*
X050567Y071681D01*
X050559Y07168D01*
X05055Y071678D01*
X050531Y071672D01*
X05052Y071668D01*
X05051Y071663D01*
X050499Y071657D01*
X050488Y071651D01*
X050478Y071643D01*
X050468Y071635D01*
X050468Y071634D01*
X050466Y071632D01*
X050464Y071629D01*
X05046Y071625D01*
X050457Y07162D01*
X050452Y071613D01*
X050448Y071605D01*
X050443Y071595D01*
X050438Y071585D01*
X050433Y071572D01*
X050428Y071559D01*
X050425Y071544D01*
X050421Y071528D01*
X050419Y071509D01*
X050417Y07149D01*
X050417Y071469D01*
Y071469D01*
Y071466D01*
Y071461D01*
X050417Y071454D01*
X050418Y071447D01*
X05042Y071438D01*
X050421Y071427D01*
X050423Y071417D01*
X050428Y071393D01*
X050433Y071381D01*
X050437Y071369D01*
X050443Y071357D01*
X05045Y071345D01*
X050457Y071334D01*
X050466Y071324D01*
X050467Y071323D01*
X050468Y071322D01*
X050471Y071319D01*
X050475Y071316D01*
X05048Y071311D01*
X050486Y071307D01*
X050493Y071302D01*
X0505Y071297D01*
X050509Y071292D01*
X050519Y071287D01*
X050529Y071283D01*
X05054Y071279D01*
X050552Y071276D01*
X050564Y071273D01*
X050577Y071271D01*
X050591Y07127D01*
X050595D01*
X050599Y071271D01*
X050604D01*
X05061Y071272D01*
X050618Y071273D01*
X050627Y071275D01*
X050636Y071277D01*
X050646Y07128D01*
X050656Y071284D01*
X050667Y071287D01*
X050677Y071293D01*
X050687Y071299D01*
X050698Y071306D01*
X050708Y071314D01*
X050718Y071324D01*
X050719Y071324D01*
X05072Y071326D01*
X050722Y07133D01*
X050726Y071334D01*
X05073Y071339D01*
X050733Y071346D01*
X050738Y071354D01*
X050743Y071363D01*
X050747Y071373D01*
X050752Y071385D01*
X050756Y071398D01*
X05076Y071411D01*
X050763Y071426D01*
X050765Y071442D01*
X050767Y071459D01*
X050767Y071477D01*
Y071478D01*
Y07148D01*
Y071483D01*
Y071487D01*
X050767Y071492D01*
Y071499D01*
X050766Y071506D01*
X050764Y071514D01*
X050762Y071531D01*
X050758Y071549D01*
X050753Y071568D01*
X050746Y071586D01*
Y071586D01*
X050745Y071588D01*
X050744Y07159D01*
X050742Y071593D01*
X050737Y071602D01*
X05073Y071612D01*
X050721Y071624D01*
X05071Y071636D01*
X050698Y071648D01*
X050684Y071658D01*
X050683D01*
X050682Y07166D01*
X05068Y07166D01*
X050676Y071663D01*
X050673Y071664D01*
X050668Y071666D01*
X050657Y071672D01*
X050644Y071676D01*
X050628Y07168D01*
X05061Y071683D01*
X050592Y071684D01*
D02*
G37*
G36*
X057941Y060532D02*
X057935D01*
X057927Y06053D01*
X057918Y060528D01*
X057907Y060525D01*
X057897Y060518D01*
X057886Y06051D01*
X057875Y060499D01*
X057874Y060498D01*
X05787Y060493D01*
X057866Y060485D01*
X057862Y060474D01*
X057857Y06046D01*
X057853Y060442D01*
X05785Y06042D01*
X057848Y060395D01*
Y060393D01*
Y060391D01*
Y060388D01*
Y060382D01*
X05785Y060369D01*
X057852Y060354D01*
X057855Y060335D01*
X05786Y060318D01*
X057867Y060301D01*
X057877Y060286D01*
X057878Y060285D01*
X057882Y060281D01*
X057888Y060275D01*
X057897Y06027D01*
X057907Y060263D01*
X05792Y060258D01*
X057934Y060254D01*
X057949Y060252D01*
X057951D01*
X057956Y060254D01*
X057963Y060255D01*
X057973Y060257D01*
X057984Y06026D01*
X057996Y060267D01*
X058008Y060274D01*
X058019Y060285D01*
X05802Y060286D01*
X058023Y060292D01*
X058029Y060299D01*
X058034Y060309D01*
X058039Y060323D01*
X058044Y06034D01*
X058047Y06036D01*
X058048Y060382D01*
Y060384D01*
Y060386D01*
Y060389D01*
Y060395D01*
X058046Y060407D01*
X058044Y060423D01*
X058041Y06044D01*
X058034Y060459D01*
X058027Y060476D01*
X058016Y060493D01*
X058015Y060495D01*
X05801Y060499D01*
X058004Y060505D01*
X057995Y060513D01*
X057984Y06052D01*
X057971Y060526D01*
X057957Y06053D01*
X057941Y060532D01*
D02*
G37*
G36*
X056089Y060532D02*
X05608D01*
X056073Y060531D01*
X056065Y06053D01*
X056056Y060529D01*
X056034Y060525D01*
X05601Y060516D01*
X055997Y060511D01*
X055984Y060505D01*
X055972Y060497D01*
X055959Y060489D01*
X055947Y060479D01*
X055936Y060467D01*
X055935Y060466D01*
X055934Y060463D01*
X05593Y06046D01*
X055927Y060455D01*
X055923Y060447D01*
X055918Y060439D01*
X055913Y060429D01*
X055907Y060417D01*
X055902Y060404D01*
X055896Y06039D01*
X055892Y060374D01*
X055888Y060356D01*
X055884Y060337D01*
X055881Y060316D01*
X05588Y060294D01*
X055879Y06027D01*
Y060269D01*
Y060264D01*
Y060258D01*
X05588Y060249D01*
X055881Y060238D01*
X055882Y060225D01*
X055884Y060212D01*
X055887Y060197D01*
X055893Y060165D01*
X055904Y060133D01*
X055911Y060117D01*
X055918Y060102D01*
X055928Y060087D01*
X055938Y060074D01*
X055939Y060073D01*
X055941Y060071D01*
X055944Y060068D01*
X055949Y060064D01*
X055954Y060059D01*
X055962Y060053D01*
X05597Y060047D01*
X055979Y060041D01*
X056Y060028D01*
X056026Y060019D01*
X056041Y060014D01*
X056056Y060011D01*
X056072Y060009D01*
X056089Y060008D01*
X056097D01*
X056104Y060009D01*
X056112Y06001D01*
X05612Y060011D01*
X056141Y060016D01*
X056165Y060024D01*
X056177Y060029D01*
X05619Y060035D01*
X056202Y060043D01*
X056216Y060051D01*
X056228Y060061D01*
X056238Y060073D01*
X05624Y060074D01*
X056241Y060076D01*
X056244Y06008D01*
X056247Y060085D01*
X056253Y060093D01*
X056257Y060102D01*
X056263Y060111D01*
X056268Y060123D01*
X056273Y060137D01*
X056279Y060151D01*
X056284Y060167D01*
X056289Y060186D01*
X056292Y060204D01*
X056295Y060225D01*
X056296Y060248D01*
X056297Y060272D01*
Y060273D01*
Y060278D01*
Y060284D01*
X056296Y060294D01*
X056295Y060305D01*
X056294Y060317D01*
X056293Y060331D01*
X05629Y060345D01*
X056283Y060377D01*
X056273Y06041D01*
X056267Y060426D01*
X056259Y06044D01*
X056249Y060455D01*
X05624Y060468D01*
X056238Y060469D01*
X056237Y060471D01*
X056234Y060473D01*
X05623Y060478D01*
X056223Y060483D01*
X056217Y060489D01*
X056209Y060494D01*
X056199Y060501D01*
X056189Y060506D01*
X056177Y060511D01*
X056152Y060522D01*
X056138Y060527D01*
X056123Y060529D01*
X056106Y060531D01*
X056089Y060532D01*
D02*
G37*
%LPD*%
D10*
X046252Y072592D02*
G03*
X046252Y072585I-000103J-000007D01*
G01*
X037596Y072539D02*
G03*
X038046Y072989I0J00045D01*
G01*
X036846Y073039D02*
G03*
X037246Y072539I00045J-00005D01*
G01*
X037346Y073439D02*
G03*
X036846Y073039I-00005J-00045D01*
G01*
X038046Y072989D02*
G03*
X037596Y073439I-00045J0D01*
G01*
X035796Y073489D02*
X039096D01*
X037696Y073439D02*
Y073489D01*
X037246Y072539D02*
X037596D01*
X037246Y073439D02*
X037746D01*
X037196Y075159D02*
X037696D01*
X037446Y074939D02*
Y075389D01*
X052653Y058894D02*
Y061847D01*
X047732Y058894D02*
X052653D01*
X047732D02*
Y061847D01*
X052653D01*
X033984Y077447D02*
Y077048D01*
X034184Y077248D02*
X033784D01*
X033684Y076848D02*
Y076648D01*
Y076748D01*
X034284D01*
X034184Y076848D01*
X033684Y075948D02*
Y076348D01*
X034084Y075948D01*
X034184D01*
X034284Y076048D01*
Y076248D01*
X034184Y076348D01*
X034284Y075748D02*
X033884D01*
X033684Y075548D01*
X033884Y075348D01*
X034284D01*
X031324Y071455D02*
X031724D01*
X031524Y071655D02*
Y071255D01*
X032324Y071755D02*
X031924D01*
Y071455D01*
X032124Y071555D01*
X032224D01*
X032324Y071455D01*
Y071255D01*
X032224Y071155D01*
X032024D01*
X031924Y071255D01*
X032524Y071755D02*
Y071355D01*
X032724Y071155D01*
X032923Y071355D01*
Y071755D01*
X056306Y062745D02*
X056505D01*
X056406D01*
Y062145D01*
X056306D01*
X056505D01*
X057105Y062745D02*
X056905D01*
X056805Y062645D01*
Y062245D01*
X056905Y062145D01*
X057105D01*
X057205Y062245D01*
Y062645D01*
X057105Y062745D01*
X057405Y062645D02*
X057505Y062745D01*
X057705D01*
X057805Y062645D01*
Y062245D01*
X057705Y062145D01*
X057505D01*
X057405Y062245D01*
Y062645D01*
X040027Y06633D02*
X039628D01*
Y06573D01*
X040027D01*
X039628Y06603D02*
X039827D01*
X040227Y06573D02*
Y06633D01*
X040627Y06573D01*
Y06633D01*
X057204Y077937D02*
Y077537D01*
X057404Y077737D02*
X057005D01*
X057504Y076937D02*
Y077337D01*
X057204D01*
X057304Y077137D01*
Y077037D01*
X057204Y076937D01*
X057005D01*
X056905Y077037D01*
Y077237D01*
X057005Y077337D01*
X057504Y076737D02*
X057105D01*
X056905Y076537D01*
X057105Y076337D01*
X057504D01*
X048689Y075749D02*
Y075249D01*
X048789Y075149D01*
X048989D01*
X049089Y075249D01*
Y075749D01*
X049289Y075149D02*
X049489D01*
X049389D01*
Y075749D01*
X049289Y075649D01*
X037419Y07176D02*
X037319Y07186D01*
X037119D01*
X037019Y07176D01*
Y07136D01*
X037119Y07126D01*
X037319D01*
X037419Y07136D01*
X037619Y07126D02*
X037819D01*
X037719D01*
Y07186D01*
X037619Y07176D01*
X043492Y072435D02*
X043592Y072535D01*
Y072735D01*
X043492Y072835D01*
X043092D01*
X042992Y072735D01*
Y072535D01*
X043092Y072435D01*
X042992Y071835D02*
Y072235D01*
X043392Y071835D01*
X043492D01*
X043592Y071935D01*
Y072135D01*
X043492Y072235D01*
X04112Y077979D02*
X04132D01*
X04122D01*
Y077379D01*
X04112D01*
X04132D01*
X042019Y077879D02*
X041919Y077979D01*
X041719D01*
X04162Y077879D01*
Y077479D01*
X041719Y077379D01*
X041919D01*
X042019Y077479D01*
X042219Y077379D02*
X042419D01*
X042319D01*
Y077979D01*
X042219Y077879D01*
X034237Y066635D02*
X034437D01*
X034337D01*
Y066035D01*
X034237D01*
X034437D01*
X035137Y066535D02*
X035037Y066635D01*
X034837D01*
X034737Y066535D01*
Y066135D01*
X034837Y066035D01*
X035037D01*
X035137Y066135D01*
X035737Y066035D02*
X035337D01*
X035737Y066435D01*
Y066535D01*
X035637Y066635D01*
X035437D01*
X035337Y066535D01*
X04541Y06223D02*
Y06263D01*
X04531Y06273D01*
X04511D01*
X04501Y06263D01*
Y06223D01*
X04511Y06213D01*
X04531D01*
X04521Y06233D02*
X04541Y06213D01*
X04531D02*
X04541Y06223D01*
X04601Y06213D02*
X04561D01*
X04601Y06253D01*
Y06263D01*
X04591Y06273D01*
X04571D01*
X04561Y06263D01*
X055558Y067131D02*
Y06773D01*
X055857D01*
X055957Y06763D01*
Y067431D01*
X055857Y067331D01*
X055558D01*
X055758D02*
X055957Y067131D01*
X056157Y06773D02*
X056557Y067131D01*
Y06773D02*
X056157Y067131D01*
X055558Y069701D02*
X055957D01*
X055758D01*
Y069101D01*
X056157Y069701D02*
X056557Y069101D01*
Y069701D02*
X056157Y069101D01*
X039575Y059449D02*
Y059848D01*
X039375Y059649D02*
X039775D01*
X039875Y060048D02*
Y060248D01*
Y060148D01*
X039275D01*
X039375Y060048D01*
X039875Y060948D02*
Y060548D01*
X039475Y060948D01*
X039375D01*
X039275Y060848D01*
Y060648D01*
X039375Y060548D01*
X039275Y061148D02*
X039675D01*
X039875Y061348D01*
X039675Y061548D01*
X039275D01*
X047027Y061679D02*
X047127Y061779D01*
X047327D01*
X047427Y061679D01*
Y061579D01*
X047327Y061479D01*
X047227D01*
X047327D01*
X047427Y061379D01*
Y061279D01*
X047327Y061179D01*
X047127D01*
X047027Y061279D01*
X055501Y075926D02*
X055401Y076026D01*
X055201D01*
X055101Y075926D01*
Y075826D01*
X055201Y075726D01*
X055401D01*
X055501Y075627D01*
Y075527D01*
X055401Y075427D01*
X055201D01*
X055101Y075527D01*
X055701Y076026D02*
Y075427D01*
X056001D01*
X056101Y075527D01*
Y075926D01*
X056001Y076026D01*
X055701D01*
X056301Y075427D02*
Y075826D01*
X056501Y076026D01*
X056701Y075826D01*
Y075427D01*
Y075726D01*
X056301D01*
X055501Y074968D02*
X055401Y075068D01*
X055201D01*
X055101Y074968D01*
Y074868D01*
X055201Y074768D01*
X055401D01*
X055501Y074668D01*
Y074568D01*
X055401Y074468D01*
X055201D01*
X055101Y074568D01*
X056101Y074968D02*
X056001Y075068D01*
X055801D01*
X055701Y074968D01*
Y074568D01*
X055801Y074468D01*
X056001D01*
X056101Y074568D01*
X056301Y075068D02*
Y074468D01*
X056701D01*
X055101Y07401D02*
X055201Y07411D01*
X055401D01*
X055501Y07401D01*
Y07391D01*
X055401Y07381D01*
X055301D01*
X055401D01*
X055501Y07371D01*
Y07361D01*
X055401Y07351D01*
X055201D01*
X055101Y07361D01*
X055701Y07411D02*
Y07371D01*
X055901Y07351D01*
X056101Y07371D01*
Y07411D01*
X056301Y07401D02*
X056401Y07411D01*
X056601D01*
X056701Y07401D01*
Y07391D01*
X056601Y07381D01*
X056501D01*
X056601D01*
X056701Y07371D01*
Y07361D01*
X056601Y07351D01*
X056401D01*
X056301Y07361D01*
X053053Y061124D02*
X053253D01*
X053153D01*
Y061723D01*
X053053Y061623D01*
X055501Y073052D02*
X055401Y073152D01*
X055201D01*
X055101Y073052D01*
Y072652D01*
X055201Y072552D01*
X055401D01*
X055501Y072652D01*
Y072852D01*
X055301D01*
X055701Y072552D02*
Y073152D01*
X056101Y072552D01*
Y073152D01*
X056301D02*
Y072552D01*
X056601D01*
X056701Y072652D01*
Y073052D01*
X056601Y073152D01*
X056301D01*
X054346Y077537D02*
X054446Y077637D01*
Y077837D01*
X054346Y077937D01*
X053947D01*
X053847Y077837D01*
Y077637D01*
X053947Y077537D01*
X054147D01*
Y077737D01*
X053847Y077337D02*
X054446D01*
X053847Y076937D01*
X054446D01*
Y076737D02*
X053847D01*
Y076437D01*
X053947Y076337D01*
X054346D01*
X054446Y076437D01*
Y076737D01*
X048487Y077474D02*
Y077874D01*
X048287Y077674D02*
X048687D01*
X048187Y078473D02*
Y078074D01*
X048487D01*
X048387Y078274D01*
Y078373D01*
X048487Y078473D01*
X048687D01*
X048787Y078373D01*
Y078174D01*
X048687Y078074D01*
X048187Y078673D02*
X048587D01*
X048787Y078873D01*
X048587Y079073D01*
X048187D01*
X029752Y066015D02*
X029352D01*
Y065715D01*
X029552Y065815D01*
X029652D01*
X029752Y065715D01*
Y065515D01*
X029652Y065415D01*
X029452D01*
X029352Y065515D01*
X029952Y066015D02*
Y065615D01*
X030152Y065415D01*
X030352Y065615D01*
Y066015D01*
X029176Y073645D02*
X029376D01*
X029276D01*
Y074245D01*
X029176Y074145D01*
X030076Y073645D02*
X029676D01*
X030076Y074045D01*
Y074145D01*
X029976Y074245D01*
X029776D01*
X029676Y074145D01*
X030275Y074245D02*
Y073845D01*
X030475Y073645D01*
X030675Y073845D01*
Y074245D01*
X02975Y070887D02*
X02965Y070987D01*
X02945D01*
X02935Y070887D01*
Y070487D01*
X02945Y070387D01*
X02965D01*
X02975Y070487D01*
Y070687D01*
X02955D01*
X02995Y070387D02*
Y070987D01*
X030349Y070387D01*
Y070987D01*
X030549D02*
Y070387D01*
X030849D01*
X030949Y070487D01*
Y070887D01*
X030849Y070987D01*
X030549D01*
X032338Y064191D02*
X032438Y064091D01*
Y063891D01*
X032338Y063791D01*
X032238D01*
X032138Y063891D01*
Y063991D01*
Y063891D01*
X032038Y063791D01*
X031938D01*
X031838Y063891D01*
Y064091D01*
X031938Y064191D01*
X032438Y063592D02*
X032038D01*
X031838Y063392D01*
X032038Y063192D01*
X032438D01*
X032338Y062992D02*
X032438Y062892D01*
Y062692D01*
X032338Y062592D01*
X032238D01*
X032138Y062692D01*
Y062792D01*
Y062692D01*
X032038Y062592D01*
X031938D01*
X031838Y062692D01*
Y062892D01*
X031938Y062992D01*
X030246Y063791D02*
X030345Y063891D01*
Y064091D01*
X030246Y064191D01*
X029846D01*
X029746Y064091D01*
Y063891D01*
X029846Y063791D01*
X030046D01*
Y063991D01*
X029746Y063592D02*
X030345D01*
X029746Y063192D01*
X030345D01*
Y062992D02*
X029746D01*
Y062692D01*
X029846Y062592D01*
X030246D01*
X030345Y062692D01*
Y062992D01*
X046597Y076895D02*
Y077295D01*
X046497Y077395D01*
X046297D01*
X046197Y077295D01*
Y076895D01*
X046297Y076795D01*
X046497D01*
X046397Y076995D02*
X046597Y076795D01*
X046497D02*
X046597Y076895D01*
X046797Y076795D02*
X046997D01*
X046897D01*
Y077395D01*
X046797Y077295D01*
X056457Y065551D02*
Y06615D01*
X056757D01*
X056857Y06605D01*
Y065851D01*
X056757Y065751D01*
X056457D01*
X056657D02*
X056857Y065551D01*
X057457Y06615D02*
X057057D01*
Y065851D01*
X057257Y06595D01*
X057357D01*
X057457Y065851D01*
Y065651D01*
X057357Y065551D01*
X057157D01*
X057057Y065651D01*
X035632Y074552D02*
X035732Y074652D01*
Y074852D01*
X035632Y074952D01*
X035232D01*
X035132Y074852D01*
Y074652D01*
X035232Y074552D01*
X035632Y074352D02*
X035732Y074252D01*
Y074052D01*
X035632Y073952D01*
X035532D01*
X035432Y074052D01*
Y074152D01*
Y074052D01*
X035332Y073952D01*
X035232D01*
X035132Y074052D01*
Y074252D01*
X035232Y074352D01*
X032159Y072366D02*
Y072966D01*
X032458D01*
X032558Y072866D01*
Y072666D01*
X032458Y072566D01*
X032159D01*
X032358D02*
X032558Y072366D01*
X032758Y072866D02*
X032858Y072966D01*
X033058D01*
X033158Y072866D01*
Y072766D01*
X033058Y072666D01*
X033158Y072566D01*
Y072466D01*
X033058Y072366D01*
X032858D01*
X032758Y072466D01*
Y072566D01*
X032858Y072666D01*
X032758Y072766D01*
Y072866D01*
X032858Y072666D02*
X033058D01*
X035178Y070405D02*
Y069805D01*
X035478D01*
X035578Y069905D01*
Y070305D01*
X035478Y070405D01*
X035178D01*
X035778Y069805D02*
X035978D01*
X035878D01*
Y070405D01*
X035778Y070305D01*
X038536Y068771D02*
X038636Y068871D01*
Y069071D01*
X038536Y069171D01*
X038136D01*
X038036Y069071D01*
Y068871D01*
X038136Y068771D01*
X038636Y068571D02*
Y068171D01*
X038536D01*
X038136Y068571D01*
X038036D01*
X04121Y06323D02*
Y06383D01*
X04151D01*
X04161Y06373D01*
Y06353D01*
X04151Y06343D01*
X04121D01*
X04141D02*
X04161Y06323D01*
X04181D02*
X04201D01*
X04191D01*
Y06383D01*
X04181Y06373D01*
X04231D02*
X04241Y06383D01*
X04261D01*
X04271Y06373D01*
Y06333D01*
X04261Y06323D01*
X04241D01*
X04231Y06333D01*
Y06373D01*
X03949Y06929D02*
Y06989D01*
X03979D01*
X03989Y06979D01*
Y06959D01*
X03979Y06949D01*
X03949D01*
X03969D02*
X03989Y06929D01*
X04009Y06979D02*
X04019Y06989D01*
X04039D01*
X04049Y06979D01*
Y06969D01*
X04039Y06959D01*
X04029D01*
X04039D01*
X04049Y06949D01*
Y06939D01*
X04039Y06929D01*
X04019D01*
X04009Y06939D01*
D11*
X039146Y073739D02*
G03*
X039146Y073739I-0017J0D01*
G01*
X033771Y060724D02*
G03*
X033716Y060778I000394J000457D01*
G01*
X032193Y059631D02*
G03*
X032193Y059631I-000064J0D01*
G01*
X034229Y059661D02*
G03*
X034229Y059661I-000064J0D01*
G01*
X031776Y060719D02*
G03*
X031712Y060783I000389J000462D01*
G01*
X029749Y060694D02*
G03*
X029683Y060759I00039J000461D01*
G01*
X030209Y059651D02*
G03*
X030209Y059651I-000064J0D01*
G01*
X041412Y060384D02*
G03*
X041425Y060373I-000388J-000462D01*
G01*
X043108Y061451D02*
G03*
X043108Y061451I-000064J0D01*
G01*
X041088Y061441D02*
G03*
X041088Y061441I-000064J0D01*
G01*
X043411Y060384D02*
G03*
X043425Y060373I-000387J-000463D01*
G01*
X04599Y059273D02*
G03*
X046023Y061638I-000524J00119D01*
G01*
X047735Y078628D02*
G03*
X04537Y07866I-00119J-000524D01*
G01*
X058549Y06989D02*
G03*
X058561Y069904I000463J-000387D01*
G01*
X057556Y067503D02*
G03*
X057556Y067503I-000064J0D01*
G01*
X057546Y069523D02*
G03*
X057546Y069523I-000064J0D01*
G01*
X05855Y067891D02*
G03*
X058561Y067904I000462J-000388D01*
G01*
X049494Y078238D02*
G03*
X049481Y07825I000387J000463D01*
G01*
X051946Y077181D02*
G03*
X051946Y077181I-000064J0D01*
G01*
X049926Y077171D02*
G03*
X049926Y077171I-000064J0D01*
G01*
X051494Y078239D02*
G03*
X051481Y07825I000388J000462D01*
G01*
X030384Y066896D02*
G03*
X030373Y066882I-000463J000387D01*
G01*
X031505Y069283D02*
G03*
X031505Y069283I-000064J0D01*
G01*
X031515Y067263D02*
G03*
X031515Y067263I-000064J0D01*
G01*
X030384Y068895D02*
G03*
X030373Y068882I-000462J000388D01*
G01*
X054562Y078161D02*
Y079151D01*
X057612Y078161D02*
Y079161D01*
X053612D02*
X057612D01*
X053612Y078161D02*
Y079161D01*
Y078161D02*
X057612D01*
X033735Y060751D02*
X034585Y061601D01*
X029165Y060181D02*
X035165D01*
Y060681D02*
Y062181D01*
X029165Y059671D02*
Y062181D01*
Y059671D02*
X029265D01*
Y059361D02*
Y059671D01*
X029165Y059361D02*
X029265D01*
X029165Y059181D02*
Y059361D01*
Y059181D02*
X035165D01*
Y060681D01*
X035225Y059381D02*
Y059631D01*
X033165Y060481D02*
Y061991D01*
X031735Y060751D02*
X03258Y061596D01*
X029165Y062181D02*
X035165D01*
X029715Y060731D02*
X030565Y061571D01*
X031165Y060461D02*
Y061971D01*
X040044Y060921D02*
X044014D01*
X040024Y058921D02*
Y060421D01*
X044024Y058921D02*
Y061431D01*
X043974D02*
X044024D01*
X043974D02*
Y061741D01*
X044024D01*
Y061921D01*
X040024D02*
X044024D01*
X040024Y060421D02*
Y061921D01*
X039964Y061471D02*
Y061721D01*
X042024Y059131D02*
Y060641D01*
X040024Y058921D02*
X044024D01*
X039838Y07786D02*
X039843Y07779D01*
X035853Y07786D02*
X039838D01*
X035863Y0761D02*
X036093D01*
X035853Y07611D02*
X035863Y0761D01*
X035853Y07611D02*
Y07816D01*
X039843D01*
Y07611D02*
Y07816D01*
Y07611D02*
X039853Y0761D01*
X036093D02*
X039853D01*
X027522Y075342D02*
Y078642D01*
X032972Y075342D02*
Y078642D01*
X027522D02*
X032972D01*
X027522Y075342D02*
X032972D01*
X028222D02*
Y078642D01*
X044941Y059422D02*
Y061452D01*
Y059422D02*
X045201Y059292D01*
X044941Y061452D02*
X045188Y061626D01*
X045555Y077578D02*
X047585D01*
X047715Y077838D01*
X045382Y077826D02*
X045555Y077578D01*
X060012Y066503D02*
Y070503D01*
X058292Y068503D02*
X059802D01*
X057212Y066443D02*
X057462D01*
X057012Y066503D02*
X058512D01*
X057012D02*
Y070503D01*
X057192D01*
Y070453D02*
Y070503D01*
Y070453D02*
X057502D01*
Y070503D01*
X060012D01*
X058512Y066503D02*
X060012D01*
X058012Y066523D02*
Y070493D01*
X048882Y079701D02*
X052882D01*
X050882Y077981D02*
Y079491D01*
X052942Y076901D02*
Y077151D01*
X052882Y076701D02*
Y078201D01*
X048882Y076701D02*
X052882D01*
X048882D02*
Y076881D01*
X048932D01*
Y077191D01*
X048882D02*
X048932D01*
X048882D02*
Y079701D01*
X052882Y078201D02*
Y079701D01*
X048892Y077701D02*
X052862D01*
X028921Y066283D02*
Y070283D01*
X029131Y068283D02*
X030641D01*
X031471Y070343D02*
X031721D01*
X030421Y070283D02*
X031921D01*
Y066283D02*
Y070283D01*
X031741Y066283D02*
X031921D01*
X031741D02*
Y066333D01*
X031431D02*
X031741D01*
X031431Y066283D02*
Y066333D01*
X028921Y066283D02*
X031431D01*
X028921Y070283D02*
X030421D01*
X030921Y066293D02*
Y070263D01*
D12*
X03623Y066909D02*
G03*
X03623Y066909I-000049J0D01*
G01*
D13*
X038932Y068051D02*
X041294D01*
X038932Y066634D02*
X041294D01*
X041293Y067703D02*
Y068053D01*
Y066633D02*
Y066983D01*
X038933Y066633D02*
Y066983D01*
Y067703D02*
Y068053D01*
X05816Y063066D02*
Y063416D01*
Y064136D02*
Y064486D01*
X0558Y064136D02*
Y064486D01*
Y063066D02*
Y063416D01*
X055799Y064484D02*
X058162D01*
X055799Y063067D02*
X058162D01*
X035787Y059803D02*
Y062165D01*
X037205Y059803D02*
Y062165D01*
X035786Y062164D02*
X036136D01*
X036856D02*
X037206D01*
X036856Y059804D02*
X037206D01*
X035786D02*
X036136D01*
X037715D02*
X038065D01*
X038785D02*
X039135D01*
X038785Y062164D02*
X039135D01*
X037715D02*
X038065D01*
X039134Y059803D02*
Y062165D01*
X037717Y059803D02*
Y062165D01*
X045709Y072405D02*
Y074938D01*
X052769Y072405D02*
Y074938D01*
X047029Y073005D02*
Y074725D01*
X051519Y073345D02*
Y074745D01*
X050499D02*
X051519D01*
X050499Y073845D02*
Y074745D01*
X049589Y073845D02*
X050499D01*
X049589D02*
Y074715D01*
X048699D02*
X049589D01*
X048699Y073815D02*
Y074715D01*
X047799Y073815D02*
X048699D01*
X047799D02*
Y074725D01*
X046259D02*
X047799D01*
X046259Y073425D02*
Y074725D01*
X045709Y074938D02*
X052769D01*
X045739Y064928D02*
Y065128D01*
Y064928D02*
X046519D01*
X052749D02*
Y065128D01*
X051969Y064928D02*
X052749D01*
X035591Y066909D02*
Y069547D01*
X034488Y066909D02*
Y069547D01*
Y066909D02*
X035591D01*
X034488Y069547D02*
X035591D01*
X058377Y072328D02*
Y076328D01*
X057877D02*
X058377D01*
X057877Y072328D02*
X058377D01*
Y072661D02*
X059711D01*
X059877Y072828D01*
X059711Y072995D02*
X059877Y072828D01*
X058377Y072995D02*
X059711D01*
X058377Y073661D02*
X059711D01*
X059877Y073828D01*
X059711Y073995D02*
X059877Y073828D01*
X058377Y073995D02*
X059711D01*
X058377Y074661D02*
X059711D01*
X059877Y074828D01*
X059711Y074995D02*
X059877Y074828D01*
X058377Y074995D02*
X059711D01*
X058377Y075661D02*
X059711D01*
X059877Y075828D01*
X059711Y075995D02*
X059877Y075828D01*
X058377Y075995D02*
X059711D01*
X057877Y072328D02*
Y076328D01*
X056352Y077958D02*
X055958D01*
Y077761D01*
X056024Y077696D01*
X056286D01*
X056352Y077761D01*
Y077958D01*
Y077564D02*
X055958D01*
X056155D01*
Y077302D01*
X056352D01*
X055958D01*
X056352Y077171D02*
Y076909D01*
Y07704D01*
X055958D01*
Y076777D02*
X056352D01*
Y076581D01*
X056286Y076515D01*
X056155D01*
X056089Y076581D01*
Y076777D01*
D14*
X044484Y071984D02*
Y072514D01*
X043784Y071984D02*
Y072504D01*
X0505Y062225D02*
X051153D01*
X0505Y062925D02*
X051153D01*
Y062225D02*
Y062925D01*
X05663Y065399D02*
X05716D01*
X05664Y064699D02*
X05716D01*
X034504Y074253D02*
Y074523D01*
X035004Y074253D02*
Y074523D01*
X03339Y07352D02*
Y074173D01*
X03409Y07352D02*
Y074173D01*
X03339Y07352D02*
X03409D01*
X033992Y072327D02*
X034522D01*
X033992Y073027D02*
X034512D01*
X033363Y071807D02*
X034016D01*
X033363Y071107D02*
X034016D01*
X033363D02*
Y071807D01*
X034584Y069729D02*
X034944D01*
X034584Y070429D02*
X034944D01*
Y069729D02*
Y070429D01*
X037299Y068544D02*
Y068814D01*
X037799Y068544D02*
Y068814D01*
X041724Y062909D02*
X042254D01*
X041734Y062209D02*
X042254D01*
X040016Y068972D02*
X040536D01*
X040016Y068272D02*
X040546D01*
X051776Y062418D02*
X052476D01*
Y063071D01*
X051776Y062418D02*
Y063071D01*
X0528Y064078D02*
X0535D01*
X0528Y063425D02*
Y064078D01*
X0535Y063425D02*
Y064078D01*
D15*
X035453Y07816D02*
X040253D01*
X040853Y07556D02*
Y08071D01*
X040253D02*
X040853D01*
X040253Y07876D02*
Y08071D01*
X038853Y07876D02*
X040253D01*
X038853D02*
Y08071D01*
X038553D02*
X038853D01*
X038553Y07996D02*
Y08071D01*
X038353Y07976D02*
X038553Y07996D01*
X038353Y07976D02*
X038453Y07966D01*
Y07896D02*
Y07966D01*
X038253Y07876D02*
X038453Y07896D01*
X037253D02*
X037453Y07876D01*
X037253Y07896D02*
Y07966D01*
X037353Y07976D01*
X037153Y07996D02*
X037353Y07976D01*
X037153Y07996D02*
Y08071D01*
X036853D02*
X037153D01*
X036853Y07876D02*
Y08071D01*
X035453Y07876D02*
X036853D01*
X035453D02*
Y08071D01*
X034853D02*
X035453D01*
X037453Y07876D02*
X038253D01*
X034853Y07556D02*
Y08071D01*
Y07556D02*
X035453D01*
Y07816D01*
X040253Y07556D02*
Y07816D01*
Y07556D02*
X040853D01*
D16*
X033963Y065106D02*
X034278D01*
X034173Y065001D01*
X034278Y064897D01*
X033963D01*
X034278Y064634D02*
Y064739D01*
X034226Y064792D01*
X034016D01*
X033963Y064739D01*
Y064634D01*
X034016Y064582D01*
X034226D01*
X034278Y064634D01*
Y064477D02*
Y064372D01*
Y064424D01*
X033963D01*
Y064477D01*
Y064372D01*
X034226Y064004D02*
X034278Y064057D01*
Y064162D01*
X034226Y064214D01*
X034173D01*
X034121Y064162D01*
Y064057D01*
X034068Y064004D01*
X034016D01*
X033963Y064057D01*
Y064162D01*
X034016Y064214D01*
X034278Y063899D02*
Y06369D01*
Y063795D01*
X033963D01*
X033911Y063585D02*
Y063375D01*
X034226Y06306D02*
X034278Y063112D01*
Y063217D01*
X034226Y06327D01*
X034173D01*
X034121Y063217D01*
Y063112D01*
X034068Y06306D01*
X034016D01*
X033963Y063112D01*
Y063217D01*
X034016Y06327D01*
X034278Y062745D02*
Y062955D01*
X033963D01*
Y062745D01*
X034121Y062955D02*
Y06285D01*
X033963Y06264D02*
X034278D01*
X033963Y06243D01*
X034278D01*
X036317Y065757D02*
X036632D01*
X036527Y065652D01*
X036632Y065547D01*
X036317D01*
X036527Y065389D02*
Y065284D01*
X036475Y065232D01*
X036317D01*
Y065389D01*
X03637Y065442D01*
X036422Y065389D01*
Y065232D01*
X036317Y065127D02*
X036527D01*
Y064969D01*
X036475Y064917D01*
X036317D01*
X036527Y064812D02*
X03637D01*
X036317Y06476D01*
Y064602D01*
X036527D01*
Y064445D02*
Y06434D01*
X036475Y064287D01*
X036317D01*
Y064445D01*
X03637Y064497D01*
X036422Y064445D01*
Y064287D01*
X036317Y064182D02*
Y064077D01*
Y06413D01*
X036632D01*
Y064182D01*
X03658Y063395D02*
X036632Y063448D01*
Y063553D01*
X03658Y063605D01*
X036527D01*
X036475Y063553D01*
Y063448D01*
X036422Y063395D01*
X03637D01*
X036317Y063448D01*
Y063553D01*
X03637Y063605D01*
X036632Y06329D02*
X036317D01*
X036422Y063185D01*
X036317Y06308D01*
X036632D01*
X038303Y065179D02*
X038618D01*
X038513Y065074D01*
X038618Y064969D01*
X038303D01*
X038618Y064707D02*
Y064812D01*
X038565Y064864D01*
X038355D01*
X038303Y064812D01*
Y064707D01*
X038355Y064655D01*
X038565D01*
X038618Y064707D01*
Y06455D02*
X038303D01*
Y064392D01*
X038355Y06434D01*
X038565D01*
X038618Y064392D01*
Y06455D01*
Y064025D02*
Y064235D01*
X038303D01*
Y064025D01*
X03846Y064235D02*
Y06413D01*
X038251Y06392D02*
Y06371D01*
X038565Y063395D02*
X038618Y063448D01*
Y063553D01*
X038565Y063605D01*
X038513D01*
X03846Y063553D01*
Y063448D01*
X038408Y063395D01*
X038355D01*
X038303Y063448D01*
Y063553D01*
X038355Y063605D01*
X038618Y06329D02*
X038303D01*
X038408Y063185D01*
X038303Y06308D01*
X038618D01*
D17*
X037838Y07797D02*
D03*
M02*
