G04*
G04 #@! TF.GenerationSoftware,Altium Limited,Altium Designer,21.9.2 (33)*
G04*
G04 Layer_Color=16711935*
%FSTAX24Y24*%
%MOIN*%
G70*
G04*
G04 #@! TF.SameCoordinates,9AA07E9A-BA48-4811-965E-F14F798923DF*
G04*
G04*
G04 #@! TF.FilePolarity,Negative*
G04*
G01*
G75*
%ADD39R,0.0592X0.0730*%
%ADD40R,0.0592X0.0474*%
%ADD41R,0.0592X0.0552*%
%ADD42O,0.0730X0.0830*%
%ADD43C,0.0710*%
%ADD44R,0.0710X0.0710*%
%ADD45C,0.1180*%
%ADD46C,0.1580*%
%ADD47O,0.0880X0.1080*%
%ADD48R,0.0880X0.1080*%
%ADD49R,0.1080X0.1680*%
%ADD50R,0.1680X0.1080*%
%ADD51R,0.0671X0.0671*%
%ADD52C,0.0671*%
%ADD53O,0.0789X0.0867*%
%ADD73R,0.0474X0.0592*%
%ADD74R,0.0730X0.0592*%
D39*
X050941Y062575D02*
D03*
X049759D02*
D03*
X046496Y07689D02*
D03*
X047677D02*
D03*
D40*
X035039Y068451D02*
D03*
Y067621D02*
D03*
D41*
X050193Y05987D02*
D03*
Y06087D02*
D03*
D42*
X054112Y078661D02*
D03*
X055122D02*
D03*
X056102D02*
D03*
X057112D02*
D03*
D43*
X037446Y072989D02*
D03*
X045591Y059472D02*
D03*
Y060472D02*
D03*
Y061472D02*
D03*
X047535Y078228D02*
D03*
X046535D02*
D03*
X045535D02*
D03*
D44*
X037446Y074489D02*
D03*
D45*
X032165Y061181D02*
D03*
X034165D02*
D03*
X030139Y061155D02*
D03*
X043024Y059921D02*
D03*
X041024D02*
D03*
X059012Y067503D02*
D03*
Y069503D02*
D03*
X051882Y078701D02*
D03*
X049882D02*
D03*
X029921Y069283D02*
D03*
Y067283D02*
D03*
D46*
X037853Y07916D02*
D03*
D47*
X038853Y07686D02*
D03*
X037853D02*
D03*
D48*
X036853D02*
D03*
D49*
X033022Y077142D02*
D03*
X030522D02*
D03*
D50*
X032022Y075142D02*
D03*
D51*
X057377Y072828D02*
D03*
D52*
Y073828D02*
D03*
Y074828D02*
D03*
Y075828D02*
D03*
D53*
X048193Y05937D02*
D03*
X049193D02*
D03*
X052193D02*
D03*
Y06137D02*
D03*
X049193D02*
D03*
X048193D02*
D03*
D73*
X034633Y071457D02*
D03*
X033803D02*
D03*
X037886Y07786D02*
D03*
X038716D02*
D03*
X039732Y067343D02*
D03*
X040562D02*
D03*
X05744Y063815D02*
D03*
X05661D02*
D03*
X039747Y068272D02*
D03*
X040577D02*
D03*
X05744Y064799D02*
D03*
X05661D02*
D03*
D74*
X053189Y062677D02*
D03*
Y063858D02*
D03*
X052126Y062677D02*
D03*
Y063858D02*
D03*
M02*
