G04*
G04 #@! TF.GenerationSoftware,Altium Limited,Altium Designer,21.9.2 (33)*
G04*
G04 Layer_Color=32768*
%FSTAX24Y24*%
%MOIN*%
G70*
G04*
G04 #@! TF.SameCoordinates,9AA07E9A-BA48-4811-965E-F14F798923DF*
G04*
G04*
G04 #@! TF.FilePolarity,Positive*
G04*
G01*
G75*
%ADD13C,0.0079*%
%ADD16C,0.0039*%
D13*
X044574Y071184D02*
Y073304D01*
X043694Y071184D02*
X044574D01*
X043694D02*
Y073304D01*
X044574D01*
X035399Y067322D02*
Y068752D01*
X034679D02*
X035399D01*
X034679Y067322D02*
Y068752D01*
Y067322D02*
X035399D01*
X037586Y07822D02*
X039016D01*
X037586Y0775D02*
Y07822D01*
Y0775D02*
X039016D01*
Y07822D01*
X039432Y067703D02*
X040862D01*
X039432Y066983D02*
Y067703D01*
Y066983D02*
X040862D01*
Y067703D01*
X05631Y063455D02*
X05774D01*
Y064175D01*
X05631D02*
X05774D01*
X05631Y063455D02*
Y064175D01*
X034404Y073673D02*
Y075103D01*
X035124D01*
Y073673D02*
Y075103D01*
X034404Y073673D02*
X035124D01*
X037199Y067964D02*
Y069394D01*
X037919D01*
Y067964D02*
Y069394D01*
X037199Y067964D02*
X037919D01*
D16*
X036752Y066811D02*
Y069646D01*
X033327Y066811D02*
Y069646D01*
Y066811D02*
X036752D01*
X033327Y069646D02*
X036752D01*
X034843Y068228D02*
X035236D01*
X035039Y068032D02*
Y068425D01*
M02*
