M48
;Layer_Color=9474304
;FILE_FORMAT=2:4
INCH,LZ
;TYPE=PLATED
T1F00S00C0.0138
T2F00S00C0.0315
T3F00S00C0.0354
T4F00S00C0.0360
T5F00S00C0.0390
T6F00S00C0.0394
T7F00S00C0.0500
T9F00S00C0.0700
%
T01
X018583Y000512
X02252
X024095
X024882
X025669
X026457
X027244
X028032
X028819
X029606
X030394
X030787Y001299
X03
X029213
X028425
X027638
X028032Y002087
X028819
X029606
X030394
X030787Y002874
X03
X029213
X028425
X027638
X028032Y003661
X028819
X029606
X030394
X027244
Y002087
X024488Y002874
X024528Y003701
X023465Y003661
X017402Y001299
X017795Y000512
X013465Y001299
X007165
X006378
X005591
X004803
X004016
X003228
X003622Y000512
X004409
X005197
X005984
X006772
Y002087
X007559
X007165Y002874
X006378
X006772Y003661
X004409Y002087
X002835Y000512
X002047
X00126
X000472
X000866Y001299
X001654
X002441
X002047Y002087
X002441Y002874
X002047Y003661
X00126
X000472
Y002087
X000866Y004449
X001654
X002441
X002047Y005236
X00126
X000472
X000866Y006024
X001654
X002441
X002047Y006811
X00126
X000472
Y009961
X00126
Y011535
X002047
X002441Y012323
X001654
X000866
X00126Y01311
X002047
X002441Y013898
X001654
X000866
X00126Y014685
X002047
X002441Y015472
X001654
X000866
X00126Y01626
X002047
X001654Y017047
X000866
X000472Y017835
X000866Y018622
X000472Y019409
Y01626
Y014685
Y01311
Y011535
X003228Y012323
X004016
X004803
X004616Y012917
X003622Y01311
X002835
X003228Y013898
X004016
X004409Y014685
X003622
X002835
X003228Y015472
X004016
X005984Y014685
X006772
X007559
X007953Y013898
X00874
X007165
X005591
X00593Y009908
X006378Y010315
X006798Y009908
X007852Y009131
X008222Y009131
Y008922
Y008712
X01061Y008799
X012461
X01265Y010118
X014702Y011929
X014252Y013898
X014646Y014685
X016221
X016102Y014331
X016614Y013898
X017038Y014261
X017008Y014685
X017402Y013898
X016614Y018622
X015827
X015039
X014252
X013465
X013858Y019409
X014646
X015433
X016221
X015433Y017835
X014646
X013858
X012087Y017638
X011496
X010905
X011201Y018228
X011791
Y017047
X012382
X012087Y016457
X012677
X011496
X011201Y017047
X009193Y016776
Y016397
Y016003
X008784Y016402
Y016776
X002835Y017835
X003228Y018622
X002835Y019409
Y006811
X003622
X004016Y006024
X003228
X003622Y005236
X002835
X003228Y004449
X007165
X014252Y006024
X015039
X016221Y006811
X015827Y007598
X017795Y006811
X018583Y008386
X01937
X020158
X019764Y009173
X018976
X018583Y009961
X018976Y010748
X01937Y011535
X020158
X019764Y012323
X018976
X01937Y01311
X020158
X019764Y013898
X018976
X01937Y014685
X020158
X018583
Y01311
Y011535
X019055Y017717
X022795
X023191
X022913Y018622
X023701
X024488
X025276
X026063
X026457Y019409
X025669
X024882
X024095
X028032
X028819
X029606
X030394
X030787Y018622
X03
X029213
X028425
X028032Y017835
X027244
Y01626
X028032
X029606
X030394
X030787Y017047
X03
X030394Y017835
X029606
X030787Y015472
X030394Y014685
X030787Y013898
X030394Y01311
X030787Y012323
X030394Y009961
X028032
X027244
X026457
X025669
X024882
X025276Y010748
X026063
X02685
X027638
Y009173
X028425
X028819Y008386
X028032
X027244
X027638Y007598
X028425
X03
X030787
X030394Y006811
X030787Y006024
X03
X029331Y006535
X029295Y005232
X029213Y004449
X03
X030787
X030394Y005236
X028425Y004449
X027638
X027362Y005236
X027134Y006575
X02685Y009173
X026063
X025276
X025669Y01311
X026457
X027244
X028032
X027638Y013898
X02685
X026063
X025276
X024488
X024121Y014127
X024095Y014685
X024882
X025669
X026457
X027244
X028032
X029213Y013898
X026063Y015472
X025276
X024488
X023701
Y013898
X024882Y01311
Y01626
X025669
X021732Y005236
X022171Y004637
X021163Y004672
X019764Y020197
X018976
X01937Y020984
X018583
X024488Y020197
X029213
X03
X030787
X030394Y020984
X029606
X028819
X017795
X017008
X016221
X015433
X014646
X013858
X013071
X012283
X011496
X010709
X011102Y020197
X01189
X012677
X013465
X014252
X015039
X015827
X017402
X010315
X007559Y020984
X006772
X005984
X005197
X004409
X003622
X002835
X003228Y020197
X002441
X001654
X000866
X00126Y020984
X002047
X000472
T02
X016929Y000929
Y001929
Y002929
X008784Y014445
Y015945
X018874Y019685
X017874
X016874
T03
X028716Y014285
Y015285
Y016285
Y017285
T04
X025451Y020118
X026461
X027441
X028451
T05
X008191Y018317
X009191
X010191
T06
X019531Y000827
X020531
Y002827
X019531
X023531
Y000827
T07
X003504Y002638
X005504
X012362Y001378
X014362
X001478Y002612
X00126Y00874
Y01074
X030351Y010959
Y008959
X02322Y020157
X02122
T09
X009191Y020617
M30
