G04*
G04 #@! TF.GenerationSoftware,Altium Limited,Altium Designer,21.9.2 (33)*
G04*
G04 Layer_Color=255*
%FSTAX24Y24*%
%MOIN*%
G70*
G04*
G04 #@! TF.SameCoordinates,9AA07E9A-BA48-4811-965E-F14F798923DF*
G04*
G04*
G04 #@! TF.FilePolarity,Positive*
G04*
G01*
G75*
%ADD18R,0.0709X0.0472*%
%ADD19R,0.0472X0.0709*%
%ADD20R,0.0787X0.0394*%
%ADD21R,0.1969X0.1969*%
%ADD22R,0.0394X0.0787*%
%ADD23R,0.0650X0.0600*%
%ADD24R,0.0945X0.0394*%
%ADD25R,0.0945X0.1299*%
%ADD26R,0.0472X0.0512*%
%ADD27R,0.0512X0.0650*%
%ADD28R,0.0512X0.0394*%
%ADD29R,0.0512X0.0472*%
%ADD58O,0.0650X0.0750*%
%ADD59C,0.0630*%
%ADD60R,0.0630X0.0630*%
%ADD61C,0.1100*%
%ADD62C,0.1500*%
%ADD63O,0.0800X0.1000*%
%ADD64R,0.0800X0.1000*%
%ADD65R,0.1000X0.1600*%
%ADD66R,0.1600X0.1000*%
%ADD67R,0.0591X0.0591*%
%ADD68C,0.0591*%
%ADD69O,0.0709X0.0787*%
D18*
X041651Y067343D02*
D03*
X038585D02*
D03*
X058508Y063776D02*
D03*
X055442D02*
D03*
D19*
X036496Y062522D02*
D03*
Y059456D02*
D03*
X038425D02*
D03*
Y062522D02*
D03*
D20*
X045679Y070978D02*
D03*
Y070478D02*
D03*
Y071978D02*
D03*
Y071478D02*
D03*
Y069978D02*
D03*
Y068478D02*
D03*
Y068978D02*
D03*
Y069478D02*
D03*
Y065478D02*
D03*
Y065978D02*
D03*
Y066478D02*
D03*
Y066978D02*
D03*
Y067478D02*
D03*
Y067978D02*
D03*
X052766Y065478D02*
D03*
Y065978D02*
D03*
Y066478D02*
D03*
Y066978D02*
D03*
Y067478D02*
D03*
Y067978D02*
D03*
Y068478D02*
D03*
Y068978D02*
D03*
Y069478D02*
D03*
Y069978D02*
D03*
Y070478D02*
D03*
Y070978D02*
D03*
Y071478D02*
D03*
Y071978D02*
D03*
D21*
X048819Y068898D02*
D03*
D22*
X050972Y064887D02*
D03*
X050472D02*
D03*
X049972D02*
D03*
X049472D02*
D03*
X048972D02*
D03*
X048472D02*
D03*
X047972D02*
D03*
X047472D02*
D03*
X046972D02*
D03*
X051472D02*
D03*
D23*
X044134Y071594D02*
D03*
Y072894D02*
D03*
D24*
X036181Y067323D02*
D03*
Y068228D02*
D03*
Y069134D02*
D03*
D25*
X033898Y068228D02*
D03*
D26*
X049803Y062575D02*
D03*
X050803D02*
D03*
X034713Y071457D02*
D03*
X033713D02*
D03*
X033594Y070079D02*
D03*
X034594D02*
D03*
D27*
X05749Y065049D02*
D03*
X056309D02*
D03*
X033661Y072677D02*
D03*
X034843D02*
D03*
X042584Y062559D02*
D03*
X041403D02*
D03*
X040866Y068622D02*
D03*
X039685D02*
D03*
D28*
X034764Y074803D02*
D03*
Y073973D02*
D03*
X037559Y069094D02*
D03*
Y068264D02*
D03*
D29*
X03374Y07487D02*
D03*
Y07387D02*
D03*
X052126Y062768D02*
D03*
Y063768D02*
D03*
X05315Y063728D02*
D03*
Y062728D02*
D03*
D58*
X054112Y078661D02*
D03*
X055122D02*
D03*
X056102D02*
D03*
X057112D02*
D03*
D59*
X037446Y072989D02*
D03*
X045591Y059472D02*
D03*
Y060472D02*
D03*
Y061472D02*
D03*
X047535Y078228D02*
D03*
X046535D02*
D03*
X045535D02*
D03*
D60*
X037446Y074489D02*
D03*
D61*
X032165Y061181D02*
D03*
X034165D02*
D03*
X030139Y061155D02*
D03*
X043024Y059921D02*
D03*
X041024D02*
D03*
X059012Y067503D02*
D03*
Y069503D02*
D03*
X051882Y078701D02*
D03*
X049882D02*
D03*
X029921Y069283D02*
D03*
Y067283D02*
D03*
D62*
X037853Y07916D02*
D03*
D63*
X038853Y07686D02*
D03*
X037853D02*
D03*
D64*
X036853D02*
D03*
D65*
X033022Y077142D02*
D03*
X030522D02*
D03*
D66*
X032022Y075142D02*
D03*
D67*
X057377Y072828D02*
D03*
D68*
Y073828D02*
D03*
Y074828D02*
D03*
Y075828D02*
D03*
D69*
X048193Y05937D02*
D03*
X049193D02*
D03*
X052193D02*
D03*
Y06137D02*
D03*
X049193D02*
D03*
X048193D02*
D03*
M02*
