G04*
G04 #@! TF.GenerationSoftware,Altium Limited,Altium Designer,21.9.2 (33)*
G04*
G04 Layer_Physical_Order=2*
G04 Layer_Color=16711680*
%FSTAX24Y24*%
%MOIN*%
G70*
G04*
G04 #@! TF.SameCoordinates,9AA07E9A-BA48-4811-965E-F14F798923DF*
G04*
G04*
G04 #@! TF.FilePolarity,Positive*
G04*
G01*
G75*
%ADD27R,0.0512X0.0650*%
%ADD28R,0.0512X0.0394*%
%ADD29R,0.0512X0.0472*%
%ADD54C,0.0236*%
%ADD55C,0.0472*%
%ADD56C,0.0354*%
%ADD57C,0.0394*%
%ADD58O,0.0650X0.0750*%
%ADD59C,0.0630*%
%ADD60R,0.0630X0.0630*%
%ADD61C,0.1100*%
%ADD62C,0.1500*%
%ADD63O,0.0800X0.1000*%
%ADD64R,0.0800X0.1000*%
%ADD65R,0.1000X0.1600*%
%ADD66R,0.1600X0.1000*%
%ADD67R,0.0591X0.0591*%
%ADD68C,0.0591*%
%ADD69O,0.0709X0.0787*%
%ADD70C,0.0276*%
%ADD71R,0.0394X0.0512*%
%ADD72R,0.0650X0.0512*%
G36*
X059957Y058744D02*
X028862D01*
Y079996D01*
X059957D01*
X059957Y058744D01*
D02*
G37*
%LPC*%
G36*
X057112Y079198D02*
X056986Y079181D01*
X056869Y079133D01*
X056768Y079056D01*
X056691Y078955D01*
X056642Y078837D01*
X056633Y078764D01*
X056582D01*
X056572Y078837D01*
X056524Y078955D01*
X056446Y079056D01*
X056346Y079133D01*
X056228Y079181D01*
X056102Y079198D01*
X055976Y079181D01*
X055859Y079133D01*
X055758Y079056D01*
X055681Y078955D01*
X055639Y078853D01*
X055586D01*
X055544Y078955D01*
X055466Y079056D01*
X055366Y079133D01*
X055248Y079181D01*
X055122Y079198D01*
X054996Y079181D01*
X054879Y079133D01*
X054778Y079056D01*
X054701Y078955D01*
X054652Y078837D01*
X054636Y078711D01*
Y078611D01*
X054652Y078485D01*
X054701Y078368D01*
X054778Y078267D01*
X054879Y07819D01*
X054996Y078141D01*
X055122Y078125D01*
X055248Y078141D01*
X055366Y07819D01*
X055466Y078267D01*
X055544Y078368D01*
X055586Y07847D01*
X055639D01*
X055681Y078368D01*
X055758Y078267D01*
X055859Y07819D01*
X055976Y078141D01*
X056102Y078125D01*
X056228Y078141D01*
X056346Y07819D01*
X056446Y078267D01*
X056524Y078368D01*
X056572Y078485D01*
X056582Y078559D01*
X056633D01*
X056642Y078485D01*
X056691Y078368D01*
X056768Y078267D01*
X056869Y07819D01*
X056986Y078141D01*
X057112Y078125D01*
X057238Y078141D01*
X057356Y07819D01*
X057456Y078267D01*
X057534Y078368D01*
X057582Y078485D01*
X057599Y078611D01*
Y078711D01*
X057582Y078837D01*
X057534Y078955D01*
X057456Y079056D01*
X057356Y079133D01*
X057238Y079181D01*
X057112Y079198D01*
D02*
G37*
G36*
X051952Y079408D02*
X051812D01*
X051676Y079381D01*
X051547Y079328D01*
X051431Y07925D01*
X051332Y079152D01*
X051255Y079036D01*
X051202Y078907D01*
X051174Y07877D01*
Y078631D01*
X051202Y078494D01*
X051255Y078366D01*
X051332Y07825D01*
X051431Y078151D01*
X051547Y078074D01*
X051676Y078021D01*
X051812Y077993D01*
X051952D01*
X052088Y078021D01*
X052217Y078074D01*
X052333Y078151D01*
X052431Y07825D01*
X052509Y078366D01*
X052562Y078494D01*
X052589Y078631D01*
Y07877D01*
X052562Y078907D01*
X052509Y079036D01*
X052431Y079152D01*
X052333Y07925D01*
X052217Y079328D01*
X052088Y079381D01*
X051952Y079408D01*
D02*
G37*
G36*
X045598Y078701D02*
X045473D01*
X045353Y078669D01*
X045245Y078606D01*
X045157Y078518D01*
X045095Y078411D01*
X045063Y078291D01*
Y078166D01*
X045095Y078046D01*
X045157Y077938D01*
X045245Y07785D01*
X045353Y077788D01*
X045473Y077756D01*
X045598D01*
X045718Y077788D01*
X045826Y07785D01*
X045913Y077938D01*
X045976Y078046D01*
X046008Y078166D01*
Y078291D01*
X045976Y078411D01*
X045913Y078518D01*
X045826Y078606D01*
X045718Y078669D01*
X045598Y078701D01*
D02*
G37*
G36*
X046598D02*
X046473D01*
X046353Y078669D01*
X046245Y078606D01*
X046157Y078518D01*
X046095Y078411D01*
X046063Y078291D01*
Y078166D01*
X046095Y078046D01*
X046157Y077938D01*
X046238Y077858D01*
Y077372D01*
X046083D01*
Y076407D01*
X046909D01*
Y077372D01*
X046794D01*
Y077832D01*
X046826Y07785D01*
X046913Y077938D01*
X046976Y078046D01*
X047008Y078166D01*
Y078291D01*
X046976Y078411D01*
X046913Y078518D01*
X046826Y078606D01*
X046718Y078669D01*
X046598Y078701D01*
D02*
G37*
G36*
X03741Y077518D02*
X036295D01*
Y076203D01*
X03741D01*
Y077518D01*
D02*
G37*
G36*
X033679Y078099D02*
X032364D01*
Y076184D01*
X033679D01*
Y078099D01*
D02*
G37*
G36*
X050669Y07961D02*
X04878D01*
X048703Y079595D01*
X048638Y079551D01*
X048594Y079486D01*
X048579Y079409D01*
Y076067D01*
X048004D01*
X047975Y076117D01*
X047992Y076146D01*
X048012Y076221D01*
Y076299D01*
X047996Y076357D01*
X048019Y076398D01*
X04803Y076407D01*
X048091D01*
Y077372D01*
X047264D01*
Y076407D01*
X047431D01*
Y076335D01*
X047421Y076299D01*
Y076221D01*
X047441Y076146D01*
X047458Y076117D01*
X047429Y076067D01*
X041277D01*
Y078173D01*
X041277Y078174D01*
X041277Y078174D01*
X041269Y078212D01*
X041261Y07825D01*
X041261Y07825D01*
X041261Y078251D01*
X041239Y078283D01*
X041218Y078315D01*
X041218Y078315D01*
X041217Y078316D01*
X041182Y078351D01*
X041181Y078351D01*
X041181Y078352D01*
X041149Y078373D01*
X041116Y078394D01*
X041116Y078394D01*
X041115Y078395D01*
X041077Y078402D01*
X04104Y078409D01*
X041039Y078409D01*
X041039Y078409D01*
X038546Y078384D01*
X038509Y078377D01*
X038471Y078369D01*
X038471Y078369D01*
X03847Y078368D01*
X038438Y078347D01*
X038406Y078326D01*
X038377Y078297D01*
X038362Y078274D01*
X038362D01*
Y078273D01*
X038334Y078232D01*
X038318Y078155D01*
Y077127D01*
X03831Y077106D01*
X038291Y07696D01*
Y07676D01*
X03831Y076615D01*
X038318Y076594D01*
Y076284D01*
X038334Y076207D01*
X038377Y076142D01*
X040331Y074189D01*
X040396Y074145D01*
X040472Y07413D01*
X049209D01*
Y065669D01*
X049224Y065592D01*
X049268Y065527D01*
X049333Y065484D01*
X049409Y065469D01*
X0535Y065469D01*
Y064707D01*
X05345Y064697D01*
X053442Y064716D01*
X053388Y064786D01*
X053181Y064994D01*
X053111Y065047D01*
X053029Y065081D01*
X052942Y065093D01*
X044754D01*
X043701Y066146D01*
Y070472D01*
X043689Y07056D01*
X043656Y070641D01*
X043602Y070711D01*
X043532Y070765D01*
X043451Y070798D01*
X043363Y07081D01*
X043276Y070798D01*
X043195Y070765D01*
X043125Y070711D01*
X043071Y070641D01*
X043037Y07056D01*
X043026Y070472D01*
Y066006D01*
X043037Y065918D01*
X043071Y065837D01*
X043125Y065767D01*
X044375Y064517D01*
X044445Y064463D01*
X044527Y064429D01*
X044614Y064418D01*
X052802D01*
X052812Y064408D01*
Y064272D01*
X052706D01*
Y063445D01*
X0535D01*
Y063091D01*
X052706D01*
Y062264D01*
X052894D01*
Y062205D01*
X052914Y06213D01*
X052953Y062063D01*
X053008Y062008D01*
X053075Y061969D01*
X05315Y061949D01*
X053228D01*
X053303Y061969D01*
X05337Y062008D01*
X053425Y062063D01*
X05345Y062106D01*
X0535Y062092D01*
Y061422D01*
X053145Y061067D01*
X052407D01*
X052331Y061052D01*
X052274Y061028D01*
X052193Y061017D01*
X052111Y061028D01*
X052054Y061052D01*
X051978Y061067D01*
X05161D01*
X051575Y061103D01*
X05159Y061724D01*
X05159Y061725D01*
X05159Y061726D01*
X051583Y061763D01*
X051576Y061801D01*
X051576Y061802D01*
X051576Y061803D01*
X051555Y061835D01*
X051534Y061867D01*
X051533Y061868D01*
X051533Y061869D01*
X051498Y061904D01*
X051497Y061905D01*
X051496Y061906D01*
X051465Y061927D01*
X051433Y061949D01*
X051432Y061949D01*
X051431Y06195D01*
X051394Y061957D01*
X051357Y061965D01*
X051355Y061965D01*
X051354Y061965D01*
X049567D01*
X049548Y062011D01*
X049587Y062049D01*
X050015D01*
X050092Y062065D01*
X050134Y062093D01*
X050173D01*
Y062132D01*
X050201Y062173D01*
X050216Y06225D01*
Y06286D01*
X050211Y062885D01*
X05021Y06291D01*
X050204Y062923D01*
X050201Y062937D01*
X050187Y062958D01*
X050176Y062981D01*
X050173Y062983D01*
Y063058D01*
X050173D01*
X050154Y063086D01*
X05017Y063123D01*
X050182Y063215D01*
X05017Y063308D01*
X050134Y063394D01*
X050077Y063468D01*
X049473Y064072D01*
X049399Y064128D01*
X049313Y064164D01*
X049221Y064176D01*
X041969D01*
X041968Y064176D01*
X041876Y064164D01*
X04179Y064128D01*
X041716Y064072D01*
X040145Y062501D01*
X03898Y063666D01*
Y069208D01*
X03963Y069858D01*
X039674Y069923D01*
X039689Y07D01*
Y074519D01*
X039674Y074596D01*
X03963Y074661D01*
X038558Y075732D01*
X038493Y075776D01*
X038416Y075791D01*
X037161D01*
X037161Y075791D01*
X037161Y075791D01*
X037123Y075784D01*
X037085Y075776D01*
X037084Y075776D01*
X037084Y075776D01*
X037052Y075754D01*
X03702Y075732D01*
X037019Y075732D01*
X037019Y075732D01*
X036984Y075697D01*
X036984Y075696D01*
X036983Y075696D01*
X036962Y075664D01*
X036941Y075631D01*
X03694Y075631D01*
X03694Y075631D01*
X036933Y075593D01*
X036925Y075555D01*
X036926Y075554D01*
X036925Y075554D01*
X03693Y074663D01*
Y074174D01*
X036945Y074097D01*
X036973Y074055D01*
Y074016D01*
X037012D01*
X037054Y073988D01*
X037131Y073973D01*
X0377D01*
X03787Y073803D01*
Y072091D01*
X037181Y071402D01*
X037137Y071337D01*
X037122Y07126D01*
Y059269D01*
X037137Y059192D01*
X037181Y059127D01*
X037246Y059084D01*
X037323Y059069D01*
X041679D01*
X041755Y059084D01*
X041821Y059127D01*
X041864Y059192D01*
X041879Y059269D01*
Y060684D01*
X041864Y06076D01*
X041821Y060825D01*
X040651Y061996D01*
X042117Y063462D01*
X049073D01*
X049387Y063147D01*
X049368Y063101D01*
X048876D01*
X048685Y063292D01*
X048667Y063304D01*
X048652Y063319D01*
X048635Y063325D01*
X04862Y063335D01*
X048599Y063339D01*
X048579Y063347D01*
X048561Y063347D01*
X048543Y06335D01*
X042505D01*
X042467Y063343D01*
X04243Y063336D01*
X042429Y063335D01*
X042428Y063335D01*
X042396Y063314D01*
X042364Y063293D01*
X042364Y063292D01*
X042363Y063292D01*
X042342Y06326D01*
X04232Y063228D01*
X04232Y063227D01*
X042319Y063226D01*
X042312Y063189D01*
X042304Y063152D01*
X04228Y060671D01*
X04228Y06067D01*
X04228Y060669D01*
Y059151D01*
X042295Y059074D01*
X042338Y059009D01*
X042404Y058966D01*
X04248Y05895D01*
X044567D01*
X044644Y058966D01*
X044709Y059009D01*
X044752Y059074D01*
X044768Y059151D01*
Y06157D01*
X045077Y06188D01*
X045259D01*
X04528Y06183D01*
X045213Y061763D01*
X04515Y061655D01*
X045118Y061535D01*
Y06141D01*
X04515Y06129D01*
X045213Y061182D01*
X0453Y061094D01*
X045408Y061032D01*
X045528Y061D01*
X045653D01*
X045773Y061032D01*
X045881Y061094D01*
X045969Y061182D01*
X046031Y06129D01*
X046063Y06141D01*
Y061535D01*
X046031Y061655D01*
X045969Y061763D01*
X045902Y06183D01*
X045922Y06188D01*
X04661D01*
X047727Y060763D01*
X047792Y060719D01*
X047869Y060704D01*
X048543D01*
X048572Y060709D01*
X048622Y060668D01*
Y060667D01*
X048637Y06059D01*
X04868Y060525D01*
X048713Y060492D01*
X048778Y060449D01*
X048855Y060434D01*
X050115Y060434D01*
X050238Y06031D01*
X050219Y060264D01*
X049779D01*
Y05985D01*
X049648Y059719D01*
X049598Y059722D01*
X049558Y059775D01*
X049451Y059857D01*
X049326Y059908D01*
X049193Y059926D01*
X049059Y059908D01*
X048934Y059857D01*
X048827Y059775D01*
X048745Y059668D01*
X04872Y059605D01*
X048665D01*
X04864Y059668D01*
X048558Y059775D01*
X048451Y059857D01*
X048326Y059908D01*
X048193Y059926D01*
X048059Y059908D01*
X047934Y059857D01*
X047827Y059775D01*
X047745Y059668D01*
X047694Y059543D01*
X047676Y05941D01*
Y059331D01*
X047694Y059197D01*
X047745Y059073D01*
X047827Y058966D01*
X047934Y058884D01*
X048059Y058832D01*
X048193Y058815D01*
X048326Y058832D01*
X048451Y058884D01*
X048558Y058966D01*
X04864Y059073D01*
X048665Y059135D01*
X04872D01*
X048745Y059073D01*
X048827Y058966D01*
X048934Y058884D01*
X049059Y058832D01*
X049193Y058815D01*
X049326Y058832D01*
X049451Y058884D01*
X049558Y058966D01*
X04964Y059073D01*
X049662Y059127D01*
X049727D01*
X049799Y059137D01*
X049866Y059164D01*
X049924Y059208D01*
X050192Y059477D01*
X050606D01*
Y059877D01*
X050652Y059896D01*
X05073Y059819D01*
X050795Y059775D01*
X050872Y05976D01*
X055556D01*
X055633Y059775D01*
X055698Y059819D01*
X055742Y059884D01*
X055757Y059961D01*
Y063558D01*
X055807Y063578D01*
X055842Y063543D01*
X05591Y063504D01*
X055985Y063484D01*
X056062D01*
X056138Y063504D01*
X056146Y063509D01*
X056255D01*
Y063402D01*
X056964D01*
Y063835D01*
X057515Y064386D01*
X057794D01*
Y06475D01*
X057844Y064778D01*
X057905Y064753D01*
X057992Y064741D01*
X058079Y064753D01*
X058161Y064786D01*
X058231Y06484D01*
X058284Y06491D01*
X058318Y064991D01*
X05833Y065079D01*
Y067171D01*
X05838Y067181D01*
X058385Y067168D01*
X058463Y067052D01*
X058561Y066953D01*
X058677Y066876D01*
X058806Y066822D01*
X058943Y066795D01*
X059082D01*
X059219Y066822D01*
X059347Y066876D01*
X059463Y066953D01*
X059562Y067052D01*
X059639Y067168D01*
X059693Y067296D01*
X05972Y067433D01*
Y067572D01*
X059693Y067709D01*
X059639Y067838D01*
X059562Y067954D01*
X059463Y068052D01*
X059347Y06813D01*
X059219Y068183D01*
X059082Y06821D01*
X058943D01*
X058806Y068183D01*
X058677Y06813D01*
X058561Y068052D01*
X058463Y067954D01*
X058385Y067838D01*
X05838Y067824D01*
X05833Y067834D01*
Y069171D01*
X05838Y069181D01*
X058385Y069168D01*
X058463Y069052D01*
X058561Y068953D01*
X058677Y068876D01*
X058806Y068822D01*
X058943Y068795D01*
X059082D01*
X059219Y068822D01*
X059347Y068876D01*
X059463Y068953D01*
X059562Y069052D01*
X059639Y069168D01*
X059693Y069296D01*
X05972Y069433D01*
Y069572D01*
X059693Y069709D01*
X059639Y069838D01*
X059562Y069954D01*
X059463Y070052D01*
X059347Y07013D01*
X059219Y070183D01*
X059082Y07021D01*
X058943D01*
X058806Y070183D01*
X058677Y07013D01*
X058561Y070052D01*
X058463Y069954D01*
X058385Y069838D01*
X05838Y069824D01*
X05833Y069834D01*
Y070372D01*
X058641Y070683D01*
X058695Y070753D01*
X058728Y070835D01*
X05874Y070922D01*
Y073527D01*
X058728Y073614D01*
X058695Y073696D01*
X058641Y073766D01*
X05834Y074067D01*
X05827Y07412D01*
X058189Y074154D01*
X058101Y074165D01*
X05768D01*
X057655Y07419D01*
X057552Y07425D01*
X057437Y074281D01*
X057318D01*
X057203Y07425D01*
X057135Y074211D01*
X056227D01*
X053939Y076499D01*
X05387Y076552D01*
X053788Y076586D01*
X053701Y076597D01*
X051457D01*
X051369Y076586D01*
X051288Y076552D01*
X051218Y076499D01*
X051164Y076429D01*
X051131Y076347D01*
X051119Y07626D01*
X051131Y076172D01*
X051164Y076091D01*
X051218Y076021D01*
X051288Y075968D01*
X051369Y075934D01*
X051457Y075922D01*
X053561D01*
X055849Y073634D01*
X055919Y073581D01*
X056Y073547D01*
X056088Y073536D01*
X057029D01*
X057099Y073466D01*
X057203Y073406D01*
X057318Y073375D01*
X057437D01*
X057552Y073406D01*
X057655Y073466D01*
X05768Y07349D01*
X057962D01*
X058065Y073387D01*
Y071062D01*
X057753Y07075D01*
X0577Y070681D01*
X057666Y070599D01*
X057655Y070512D01*
Y065213D01*
X057085D01*
Y064743D01*
X05701Y064668D01*
X056964Y064687D01*
Y065213D01*
X056255D01*
Y065126D01*
X056168D01*
X056073Y065222D01*
X05607Y065232D01*
X056031Y065299D01*
X055976Y065354D01*
X055909Y065393D01*
X055834Y065413D01*
X055757D01*
Y066929D01*
X055742Y067006D01*
X055698Y067071D01*
X055633Y067115D01*
X055556Y06713D01*
X05209D01*
Y073097D01*
X052075Y073173D01*
X052032Y073238D01*
X05087Y0744D01*
Y079409D01*
X050855Y079486D01*
X050811Y079551D01*
X050746Y079595D01*
X050669Y07961D01*
D02*
G37*
G36*
X057437Y076281D02*
X057318D01*
X057203Y07625D01*
X057099Y07619D01*
X057015Y076106D01*
X056955Y076003D01*
X056925Y075888D01*
Y075768D01*
X056955Y075653D01*
X057015Y07555D01*
X057099Y075466D01*
X057203Y075406D01*
X057318Y075375D01*
X057437D01*
X057552Y075406D01*
X057655Y075466D01*
X05774Y07555D01*
X057799Y075653D01*
X05783Y075768D01*
Y075888D01*
X057799Y076003D01*
X05774Y076106D01*
X057655Y07619D01*
X057552Y07625D01*
X057437Y076281D01*
D02*
G37*
G36*
X032979Y075799D02*
X031064D01*
Y074484D01*
X032979D01*
Y075799D01*
D02*
G37*
G36*
X057437Y075281D02*
X057318D01*
X057203Y07525D01*
X057099Y07519D01*
X057015Y075106D01*
X056955Y075003D01*
X056925Y074888D01*
Y074768D01*
X056955Y074653D01*
X057015Y07455D01*
X057099Y074466D01*
X057203Y074406D01*
X057318Y074375D01*
X057437D01*
X057552Y074406D01*
X057655Y074466D01*
X05774Y07455D01*
X057799Y074653D01*
X05783Y074768D01*
Y074888D01*
X057799Y075003D01*
X05774Y075106D01*
X057655Y07519D01*
X057552Y07525D01*
X057437Y075281D01*
D02*
G37*
G36*
X034157Y07187D02*
X033448D01*
Y071737D01*
X033388D01*
X033316Y071756D01*
X033239D01*
X033163Y071736D01*
X033096Y071697D01*
X033041Y071642D01*
X033002Y071575D01*
X032982Y0715D01*
Y071422D01*
X033002Y071347D01*
X033041Y071279D01*
X033096Y071224D01*
X033163Y071186D01*
X033239Y071165D01*
X033316D01*
X033373Y071181D01*
X033448D01*
Y071043D01*
X034157D01*
Y07187D01*
D02*
G37*
G36*
X035803Y06925D02*
X035803Y06925D01*
X035802Y06925D01*
X034418Y069237D01*
X03438Y06923D01*
X034343Y069222D01*
X034342Y069222D01*
X034341Y069222D01*
X03431Y0692D01*
X034278Y069179D01*
X034277Y069178D01*
X034277Y069177D01*
X034256Y069145D01*
X034234Y069114D01*
X034234Y069113D01*
X034234Y069112D01*
X034227Y069074D01*
X034219Y069037D01*
X034219Y069036D01*
X034219Y069035D01*
X034222Y06902D01*
Y068255D01*
X034237Y068178D01*
X034281Y068113D01*
X034346Y068069D01*
X034423Y068054D01*
X035803D01*
X03588Y068069D01*
X035945Y068113D01*
X035989Y068178D01*
X036004Y068255D01*
Y069049D01*
X036004Y06905D01*
X036004Y069051D01*
X035996Y069088D01*
X035989Y069126D01*
X035988Y069127D01*
X035988Y069127D01*
X035967Y069159D01*
X035945Y069191D01*
X035945Y069191D01*
X035944Y069192D01*
X035912Y069213D01*
X03588Y069234D01*
X035879Y069235D01*
X035879Y069235D01*
X035841Y069242D01*
X035803Y06925D01*
D02*
G37*
G36*
X041351Y068957D02*
X041273D01*
X041198Y068937D01*
X041131Y068898D01*
X041076Y068843D01*
X041042Y068785D01*
X040969Y068712D01*
X040932Y068685D01*
Y068685D01*
X040932Y068685D01*
X040223D01*
Y068199D01*
X040177Y06818D01*
X040102Y068255D01*
Y068685D01*
X039393D01*
Y067859D01*
X039712D01*
X040208Y067363D01*
Y066929D01*
X040917D01*
Y067065D01*
X041019D01*
X041083Y067047D01*
X041161D01*
X041236Y067067D01*
X041303Y067106D01*
X041358Y067161D01*
X041397Y067229D01*
X041417Y067304D01*
Y067381D01*
X041397Y067456D01*
X041358Y067524D01*
X041303Y067579D01*
X041236Y067618D01*
X041161Y067638D01*
X041083D01*
X041019Y06762D01*
X040917D01*
Y067756D01*
X040601D01*
X040545Y067812D01*
X040564Y067859D01*
X040932D01*
Y068019D01*
X040947D01*
X041019Y068029D01*
X041086Y068056D01*
X041144Y0681D01*
X041435Y068392D01*
X041493Y068425D01*
X041548Y06848D01*
X041587Y068547D01*
X041607Y068623D01*
Y0687D01*
X041587Y068775D01*
X041548Y068843D01*
X041493Y068898D01*
X041426Y068937D01*
X041351Y068957D01*
D02*
G37*
G36*
X029991Y067991D02*
X029852D01*
X029715Y067964D01*
X029586Y06791D01*
X02947Y067833D01*
X029372Y067734D01*
X029294Y067619D01*
X029241Y06749D01*
X029214Y067353D01*
Y067214D01*
X029241Y067077D01*
X029294Y066948D01*
X029372Y066832D01*
X02947Y066734D01*
X029586Y066656D01*
X029715Y066603D01*
X029852Y066576D01*
X029991D01*
X030128Y066603D01*
X030256Y066656D01*
X030372Y066734D01*
X030471Y066832D01*
X030548Y066948D01*
X030602Y067077D01*
X030629Y067214D01*
Y067353D01*
X030602Y06749D01*
X030548Y067619D01*
X030471Y067734D01*
X030372Y067833D01*
X030256Y06791D01*
X030128Y067964D01*
X029991Y067991D01*
D02*
G37*
G36*
X050871Y063475D02*
X050794D01*
X050718Y063455D01*
X050651Y063416D01*
X050596Y063361D01*
X050557Y063294D01*
X050537Y063219D01*
Y063141D01*
X050546Y063108D01*
X050527Y063058D01*
X050527D01*
Y062093D01*
X051354D01*
Y063058D01*
X051118D01*
Y063105D01*
X051128Y063141D01*
Y063219D01*
X051108Y063294D01*
X051069Y063361D01*
X051014Y063416D01*
X050946Y063455D01*
X050871Y063475D01*
D02*
G37*
G36*
X052608Y063091D02*
X051644D01*
Y062264D01*
X051815D01*
X051831Y062244D01*
Y062166D01*
X051851Y062091D01*
X05189Y062023D01*
X051945Y061968D01*
X052012Y06193D01*
X052087Y061909D01*
X052165D01*
X05224Y06193D01*
X052307Y061968D01*
X052362Y062023D01*
X052401Y062091D01*
X052421Y062166D01*
Y062244D01*
X052437Y062264D01*
X052608D01*
Y063091D01*
D02*
G37*
G36*
X034235Y061889D02*
X034096D01*
X033959Y061861D01*
X03383Y061808D01*
X033714Y061731D01*
X033616Y061632D01*
X033538Y061516D01*
X033485Y061387D01*
X033458Y061251D01*
Y061111D01*
X033485Y060975D01*
X033538Y060846D01*
X033616Y06073D01*
X033714Y060632D01*
X03383Y060554D01*
X033959Y060501D01*
X034096Y060474D01*
X034235D01*
X034372Y060501D01*
X0345Y060554D01*
X034616Y060632D01*
X034715Y06073D01*
X034792Y060846D01*
X034846Y060975D01*
X034873Y061111D01*
Y061251D01*
X034846Y061387D01*
X034792Y061516D01*
X034715Y061632D01*
X034616Y061731D01*
X0345Y061808D01*
X034372Y061861D01*
X034235Y061889D01*
D02*
G37*
G36*
X032235D02*
X032096D01*
X031959Y061861D01*
X03183Y061808D01*
X031714Y061731D01*
X031616Y061632D01*
X031538Y061516D01*
X031485Y061387D01*
X031458Y061251D01*
Y061111D01*
X031485Y060975D01*
X031538Y060846D01*
X031616Y06073D01*
X031714Y060632D01*
X03183Y060554D01*
X031959Y060501D01*
X032096Y060474D01*
X032235D01*
X032372Y060501D01*
X0325Y060554D01*
X032616Y060632D01*
X032715Y06073D01*
X032792Y060846D01*
X032846Y060975D01*
X032873Y061111D01*
Y061251D01*
X032846Y061387D01*
X032792Y061516D01*
X032715Y061632D01*
X032616Y061731D01*
X0325Y061808D01*
X032372Y061861D01*
X032235Y061889D01*
D02*
G37*
G36*
X045653Y060945D02*
X045528D01*
X045408Y060913D01*
X0453Y06085D01*
X045213Y060763D01*
X04515Y060655D01*
X045118Y060535D01*
Y06041D01*
X04515Y06029D01*
X045213Y060182D01*
X0453Y060094D01*
X045408Y060032D01*
X045528Y06D01*
X045653D01*
X045773Y060032D01*
X045881Y060094D01*
X045969Y060182D01*
X046031Y06029D01*
X046063Y06041D01*
Y060535D01*
X046031Y060655D01*
X045969Y060763D01*
X045881Y06085D01*
X045773Y060913D01*
X045653Y060945D01*
D02*
G37*
%LPD*%
G36*
X050669Y074331D02*
X050656D01*
X05189Y073097D01*
Y066929D01*
X055556D01*
Y065295D01*
X05552Y065232D01*
X0555Y065157D01*
Y065079D01*
X05552Y065004D01*
X055556Y064941D01*
Y059961D01*
X050872D01*
X050606Y060226D01*
Y060264D01*
X050568D01*
X050198Y060634D01*
X048855Y060634D01*
X048822Y060667D01*
Y061764D01*
X051354D01*
X051389Y061728D01*
X051369Y060866D01*
X051978D01*
X052059Y060832D01*
X052193Y060815D01*
X052326Y060832D01*
X052407Y060866D01*
X053228D01*
X053701Y061339D01*
Y065669D01*
X049409Y065669D01*
Y074331D01*
X040472D01*
X038519Y076284D01*
Y078155D01*
X038548Y078184D01*
X041041Y078208D01*
X041076Y078173D01*
Y075866D01*
X04878D01*
Y079409D01*
X050669D01*
Y074331D01*
D02*
G37*
G36*
X048793Y0629D02*
X049659D01*
X049732Y06287D01*
X049824Y062858D01*
X049917Y06287D01*
X049965Y06289D01*
X050015Y06286D01*
Y06225D01*
X049504D01*
X049222Y061968D01*
X048543D01*
Y060904D01*
X047869D01*
X046693Y06208D01*
X044994D01*
X044567Y061654D01*
Y059151D01*
X04248D01*
Y060669D01*
X042505Y06315D01*
X048543D01*
X048793Y0629D01*
D02*
G37*
G36*
X039488Y074519D02*
Y07D01*
X03878Y069291D01*
Y063583D01*
X041679Y060684D01*
Y059269D01*
X037323D01*
Y07126D01*
X038071Y072008D01*
Y073886D01*
X037783Y074174D01*
X037131D01*
Y074664D01*
X037126Y075555D01*
X037161Y075591D01*
X038416D01*
X039488Y074519D01*
D02*
G37*
G36*
X035803Y068255D02*
X034423D01*
Y069034D01*
X03442Y069037D01*
X035803Y069049D01*
Y068255D01*
D02*
G37*
D27*
X050941Y062575D02*
D03*
X049759D02*
D03*
X046496Y07689D02*
D03*
X047677D02*
D03*
D28*
X035039Y068451D02*
D03*
Y067621D02*
D03*
D29*
X050193Y05987D02*
D03*
Y06087D02*
D03*
D54*
X033801Y071459D02*
X033803Y071457D01*
X033277Y071461D02*
X033279Y071459D01*
X033801D01*
X040562Y067343D02*
X041122D01*
X040562D02*
Y067402D01*
X040602Y068297D02*
X040947D01*
X041312Y068661D01*
X040577Y068272D02*
X040602Y068297D01*
X056053Y064848D02*
X056561D01*
X055795Y065107D02*
Y065118D01*
X056561Y064848D02*
X05661Y064799D01*
X055795Y065107D02*
X056053Y064848D01*
X047709Y076267D02*
X047717Y07626D01*
X047709Y076267D02*
Y076858D01*
X053189Y062244D02*
Y062677D01*
X052126Y062205D02*
Y062677D01*
X057361Y064625D02*
Y064721D01*
X05661Y063815D02*
Y063874D01*
X057361Y064625D01*
Y064721D02*
X05744Y064799D01*
X056024Y06378D02*
X056031Y063787D01*
X056582D02*
X05661Y063815D01*
X056031Y063787D02*
X056582D01*
X05084Y062676D02*
Y063172D01*
Y062676D02*
X050941Y062575D01*
X050832Y06318D02*
X05084Y063172D01*
X049227Y059405D02*
X049727D01*
X050055Y059733D02*
Y059752D01*
X049727Y059405D02*
X050055Y059733D01*
X050173Y05987D02*
X050193D01*
X050055Y059752D02*
X050173Y05987D01*
X049193Y05937D02*
X049227Y059405D01*
X046516Y076909D02*
Y078209D01*
X046496Y07689D02*
X046516Y076909D01*
Y078209D02*
X046535Y078228D01*
X047677Y07689D02*
X047709Y076858D01*
X039826Y068134D02*
X03983D01*
X039747Y068213D02*
Y068272D01*
X03983Y068134D02*
X040562Y067402D01*
X039747Y068213D02*
X039826Y068134D01*
D55*
X057471Y063784D02*
X057948D01*
X039272Y067343D02*
X039535D01*
D56*
X05315Y063898D02*
Y064548D01*
X044614Y064755D02*
X052942D01*
X043363Y066006D02*
X044614Y064755D01*
X052942D02*
X05315Y064548D01*
X043363Y066006D02*
Y070472D01*
X051853Y07626D02*
X053701D01*
X051457D02*
X051853D01*
X05315Y063898D02*
X053189Y063858D01*
X056088Y073873D02*
X057332D01*
X057377Y073828D01*
X053701Y07626D02*
X056088Y073873D01*
X035039Y068451D02*
X035459D01*
X035039D02*
Y068858D01*
X034591Y068451D02*
X035039D01*
X058101Y073828D02*
X058402Y073527D01*
X057377Y073828D02*
X058101D01*
X058402Y070922D02*
Y073527D01*
X057992Y070512D02*
X058402Y070922D01*
X057992Y065079D02*
Y070512D01*
D57*
X049221Y063819D02*
X049824Y063215D01*
X041968Y063819D02*
X049221D01*
X039964Y061814D02*
X041968Y063819D01*
X037446Y074946D02*
Y075319D01*
Y074489D02*
Y074946D01*
D58*
X054112Y078661D02*
D03*
X055122D02*
D03*
X056102D02*
D03*
X057112D02*
D03*
D59*
X037446Y072989D02*
D03*
X045591Y059472D02*
D03*
Y060472D02*
D03*
Y061472D02*
D03*
X047535Y078228D02*
D03*
X046535D02*
D03*
X045535D02*
D03*
D60*
X037446Y074489D02*
D03*
D61*
X032165Y061181D02*
D03*
X034165D02*
D03*
X030139Y061155D02*
D03*
X043024Y059921D02*
D03*
X041024D02*
D03*
X059012Y067503D02*
D03*
Y069503D02*
D03*
X051882Y078701D02*
D03*
X049882D02*
D03*
X029921Y069283D02*
D03*
Y067283D02*
D03*
D62*
X037853Y07916D02*
D03*
D63*
X038853Y07686D02*
D03*
X037853D02*
D03*
D64*
X036853D02*
D03*
D65*
X033022Y077142D02*
D03*
X030522D02*
D03*
D66*
X032022Y075142D02*
D03*
D67*
X057377Y072828D02*
D03*
D68*
Y073828D02*
D03*
Y074828D02*
D03*
Y075828D02*
D03*
D69*
X048193Y05937D02*
D03*
X049193D02*
D03*
X052193D02*
D03*
Y06137D02*
D03*
X049193D02*
D03*
X048193D02*
D03*
D70*
X036884Y067465D02*
D03*
Y067674D02*
D03*
X036513Y067674D02*
D03*
X036884Y067256D02*
D03*
X059055Y079528D02*
D03*
X059449Y07874D02*
D03*
X059055Y077953D02*
D03*
X059449Y077165D02*
D03*
X059055Y076378D02*
D03*
X059449Y075591D02*
D03*
X059055Y074803D02*
D03*
X059449Y074016D02*
D03*
X059055Y073228D02*
D03*
X059449Y072441D02*
D03*
X059055Y071654D02*
D03*
X059449Y070866D02*
D03*
X059055Y068504D02*
D03*
X059449Y066142D02*
D03*
X059055Y065354D02*
D03*
X059449Y064567D02*
D03*
X059055Y06378D02*
D03*
X059449Y062992D02*
D03*
X059055Y062205D02*
D03*
X059449Y061417D02*
D03*
X059055Y06063D02*
D03*
X059449Y059843D02*
D03*
X059055Y059055D02*
D03*
X058268Y079528D02*
D03*
X058661Y07874D02*
D03*
X058268Y077953D02*
D03*
X058661Y077165D02*
D03*
X058268Y076378D02*
D03*
X058661Y075591D02*
D03*
X058268Y074803D02*
D03*
X058661Y066142D02*
D03*
Y064567D02*
D03*
Y062992D02*
D03*
X058268Y062205D02*
D03*
X058661Y061417D02*
D03*
X058268Y06063D02*
D03*
X058661Y059843D02*
D03*
X058268Y059055D02*
D03*
X05748Y079528D02*
D03*
X057874Y07874D02*
D03*
X05748Y077953D02*
D03*
X057874Y077165D02*
D03*
Y072441D02*
D03*
X05748Y066929D02*
D03*
X057874Y062992D02*
D03*
X05748Y062205D02*
D03*
X057874Y061417D02*
D03*
X05748Y06063D02*
D03*
X057874Y059843D02*
D03*
X05748Y059055D02*
D03*
X056693Y077953D02*
D03*
X057087Y077165D02*
D03*
X056693Y076378D02*
D03*
Y074803D02*
D03*
Y073228D02*
D03*
Y071654D02*
D03*
Y068504D02*
D03*
X057087Y067717D02*
D03*
X056693Y066929D02*
D03*
X057087Y066142D02*
D03*
Y062992D02*
D03*
X056693Y062205D02*
D03*
X057087Y061417D02*
D03*
X056693Y06063D02*
D03*
X057087Y059843D02*
D03*
X056693Y059055D02*
D03*
X055906Y076378D02*
D03*
Y074803D02*
D03*
Y073228D02*
D03*
X056299Y072441D02*
D03*
X055906Y071654D02*
D03*
X056299Y069291D02*
D03*
X055906Y068504D02*
D03*
X056299Y067717D02*
D03*
X055906Y066929D02*
D03*
X056299Y066142D02*
D03*
Y062992D02*
D03*
X055906Y062205D02*
D03*
X056299Y061417D02*
D03*
X055906Y06063D02*
D03*
X056299Y059843D02*
D03*
X055906Y059055D02*
D03*
X055118Y077953D02*
D03*
Y073228D02*
D03*
X055512Y072441D02*
D03*
X055118Y071654D02*
D03*
X055512Y069291D02*
D03*
X055118Y068504D02*
D03*
X055512Y067717D02*
D03*
X055118Y059055D02*
D03*
X054331Y077953D02*
D03*
X054724Y077165D02*
D03*
X054331Y074803D02*
D03*
X054724Y074016D02*
D03*
X054331Y073228D02*
D03*
X054724Y072441D02*
D03*
X054331Y071654D02*
D03*
X054724Y069291D02*
D03*
X054331Y068504D02*
D03*
X054724Y067717D02*
D03*
X054331Y059055D02*
D03*
X053543Y077953D02*
D03*
X053937Y077165D02*
D03*
X053543Y074803D02*
D03*
X053937Y074016D02*
D03*
X053543Y073228D02*
D03*
X053937Y072441D02*
D03*
X053543Y071654D02*
D03*
X053937Y069291D02*
D03*
X053543Y068504D02*
D03*
X053937Y067717D02*
D03*
X053543Y059055D02*
D03*
X05315Y07874D02*
D03*
X052756Y077953D02*
D03*
X05315Y077165D02*
D03*
Y074016D02*
D03*
X052756Y073228D02*
D03*
X05315Y072441D02*
D03*
Y061417D02*
D03*
X052756Y059055D02*
D03*
X052362Y077165D02*
D03*
Y074016D02*
D03*
Y072441D02*
D03*
X051575Y077165D02*
D03*
X051181Y059055D02*
D03*
X050394Y06378D02*
D03*
X048819Y073228D02*
D03*
Y071654D02*
D03*
Y070079D02*
D03*
Y066929D02*
D03*
X048032Y079528D02*
D03*
X048425Y07874D02*
D03*
X048032Y073228D02*
D03*
X048425Y072441D02*
D03*
X048032Y071654D02*
D03*
X048425Y070866D02*
D03*
X048032Y070079D02*
D03*
X048425Y067717D02*
D03*
X048032Y066929D02*
D03*
X047244Y079528D02*
D03*
X047638Y07874D02*
D03*
X047244Y073228D02*
D03*
X047638Y072441D02*
D03*
X047244Y071654D02*
D03*
X047638Y070866D02*
D03*
X047244Y070079D02*
D03*
X047638Y069291D02*
D03*
X047244Y068504D02*
D03*
X047638Y067717D02*
D03*
X047244Y066929D02*
D03*
Y059055D02*
D03*
X046457Y079528D02*
D03*
Y065354D02*
D03*
Y059055D02*
D03*
X045669Y079528D02*
D03*
X046063Y07874D02*
D03*
X045669Y073228D02*
D03*
X046063Y072441D02*
D03*
Y059843D02*
D03*
X044882Y079528D02*
D03*
Y077953D02*
D03*
X045276Y077165D02*
D03*
X044882Y073228D02*
D03*
X045276Y072441D02*
D03*
X044882Y065354D02*
D03*
X044095Y079528D02*
D03*
X044488Y07874D02*
D03*
X044095Y077953D02*
D03*
X044488Y077165D02*
D03*
X044095Y076378D02*
D03*
X044488Y066142D02*
D03*
X043307Y079528D02*
D03*
X043701Y07874D02*
D03*
X043307Y077953D02*
D03*
X043701Y077165D02*
D03*
X043307Y076378D02*
D03*
Y073228D02*
D03*
X043701Y064567D02*
D03*
X04252Y079528D02*
D03*
X042913Y07874D02*
D03*
X04252Y077953D02*
D03*
X042913Y077165D02*
D03*
X04252Y076378D02*
D03*
X042913Y072441D02*
D03*
Y064567D02*
D03*
X041732Y079528D02*
D03*
X042126Y07874D02*
D03*
Y077165D02*
D03*
Y059843D02*
D03*
X040945Y079528D02*
D03*
X041339Y07874D02*
D03*
X040157Y079528D02*
D03*
X040551Y07874D02*
D03*
X03937Y079528D02*
D03*
X039764Y07874D02*
D03*
X038976D02*
D03*
X037402Y072441D02*
D03*
X03622Y079528D02*
D03*
Y073228D02*
D03*
X036614Y072441D02*
D03*
X03622Y06063D02*
D03*
X035433Y079528D02*
D03*
Y073228D02*
D03*
X035827Y072441D02*
D03*
Y062992D02*
D03*
X035433Y062205D02*
D03*
X035827Y061417D02*
D03*
X035433Y06063D02*
D03*
X035827Y059843D02*
D03*
X035433Y059055D02*
D03*
X034646Y079528D02*
D03*
Y073228D02*
D03*
X035039Y061417D02*
D03*
Y059843D02*
D03*
X034646Y059055D02*
D03*
X033858Y079528D02*
D03*
X034252Y072441D02*
D03*
Y059843D02*
D03*
X033858Y059055D02*
D03*
X033071Y079528D02*
D03*
Y073228D02*
D03*
X033465Y070866D02*
D03*
X033071Y06063D02*
D03*
X033465Y059843D02*
D03*
X033071Y059055D02*
D03*
X032283Y079528D02*
D03*
X032677Y074016D02*
D03*
X032283Y073228D02*
D03*
X032677Y072441D02*
D03*
X032283Y071654D02*
D03*
X032677Y070866D02*
D03*
X032283Y065354D02*
D03*
X032677Y064567D02*
D03*
X032283Y06378D02*
D03*
X032677Y059843D02*
D03*
X032283Y059055D02*
D03*
X031496Y079528D02*
D03*
X03189Y07874D02*
D03*
X031496Y077953D02*
D03*
X03189Y077165D02*
D03*
X031496Y076378D02*
D03*
X03189Y074016D02*
D03*
X031496Y073228D02*
D03*
X03189Y072441D02*
D03*
X031496Y071654D02*
D03*
X03189Y070866D02*
D03*
X031496Y065354D02*
D03*
X03189Y064567D02*
D03*
X031496Y06378D02*
D03*
X03189Y062992D02*
D03*
Y059843D02*
D03*
X031496Y059055D02*
D03*
X030709Y079528D02*
D03*
X031102Y07874D02*
D03*
X030709Y074803D02*
D03*
X031102Y074016D02*
D03*
X030709Y073228D02*
D03*
X031102Y072441D02*
D03*
X030709Y071654D02*
D03*
X031102Y070866D02*
D03*
X030709Y070079D02*
D03*
Y065354D02*
D03*
X031102Y064567D02*
D03*
X030709Y06378D02*
D03*
X031102Y062992D02*
D03*
X030709Y062205D02*
D03*
X031102Y061417D02*
D03*
X030709Y06063D02*
D03*
X031102Y059843D02*
D03*
X030709Y059055D02*
D03*
X029921Y079528D02*
D03*
X030315Y07874D02*
D03*
Y075591D02*
D03*
X029921Y074803D02*
D03*
X030315Y074016D02*
D03*
X029921Y073228D02*
D03*
X030315Y072441D02*
D03*
X029921Y071654D02*
D03*
X030315Y070866D02*
D03*
X029921Y070079D02*
D03*
Y068504D02*
D03*
Y065354D02*
D03*
X030315Y064567D02*
D03*
X029921Y06378D02*
D03*
X030315Y062992D02*
D03*
X029921Y062205D02*
D03*
X030315Y059843D02*
D03*
X029921Y059055D02*
D03*
X029134Y079528D02*
D03*
X029528Y07874D02*
D03*
X029134Y077953D02*
D03*
X029528Y077165D02*
D03*
X029134Y076378D02*
D03*
X029528Y075591D02*
D03*
X029134Y074803D02*
D03*
X029528Y074016D02*
D03*
X029134Y073228D02*
D03*
X029528Y072441D02*
D03*
X029134Y071654D02*
D03*
X029528Y070866D02*
D03*
X029134Y070079D02*
D03*
Y068504D02*
D03*
Y065354D02*
D03*
X029528Y064567D02*
D03*
X029134Y06378D02*
D03*
X029528Y062992D02*
D03*
X029134Y062205D02*
D03*
Y06063D02*
D03*
X029528Y059843D02*
D03*
X029134Y059055D02*
D03*
X041339Y075D02*
D03*
X040748Y076181D02*
D03*
X041043Y075591D02*
D03*
X040748Y075D02*
D03*
X040453Y076772D02*
D03*
X040157Y076181D02*
D03*
X040453Y075591D02*
D03*
X040157Y075D02*
D03*
X039862Y076772D02*
D03*
X039567Y076181D02*
D03*
X039862Y075591D02*
D03*
X052782Y07267D02*
D03*
X045699Y072804D02*
D03*
X044764Y072874D02*
D03*
X051853Y07626D02*
D03*
X033277Y071461D02*
D03*
X043363Y070472D02*
D03*
X041122Y067343D02*
D03*
X041312Y068661D02*
D03*
X055795Y065118D02*
D03*
X051457Y07626D02*
D03*
X047717D02*
D03*
X035459Y068451D02*
D03*
X035039Y068858D02*
D03*
X034591Y068451D02*
D03*
X057992Y065079D02*
D03*
X053189Y062244D02*
D03*
X052126Y062205D02*
D03*
X057957Y063776D02*
D03*
X056024Y06378D02*
D03*
X050832Y06318D02*
D03*
X049824Y063215D02*
D03*
X039272Y067343D02*
D03*
X037855Y074547D02*
D03*
Y07494D02*
D03*
Y075319D02*
D03*
X037446D02*
D03*
Y074946D02*
D03*
D71*
X034633Y071457D02*
D03*
X033803D02*
D03*
X037886Y07786D02*
D03*
X038716D02*
D03*
X039732Y067343D02*
D03*
X040562D02*
D03*
X05744Y063815D02*
D03*
X05661D02*
D03*
X039747Y068272D02*
D03*
X040577D02*
D03*
X05744Y064799D02*
D03*
X05661D02*
D03*
D72*
X053189Y062677D02*
D03*
Y063858D02*
D03*
X052126Y062677D02*
D03*
Y063858D02*
D03*
M02*
